<?xml version="1.0" encoding="UTF-8"?>
<svg version="1.1" xmlns="http://www.w3.org/2000/svg" width="814" height="239">
<path d="M0 0 C268.62 0 537.24 0 814 0 C814 78.87 814 157.74 814 239 C545.38 239 276.76 239 0 239 C0 160.13 0 81.26 0 0 Z " fill="#FCFDFD" transform="translate(0,0)"/>
<path d="M0 0 C2.45160397 2.15782527 4.70723914 4.37075278 6.81640625 6.87109375 C7.68458984 7.89396484 7.68458984 7.89396484 8.5703125 8.9375 C9.12589844 9.59621094 9.68148437 10.25492188 10.25390625 10.93359375 C10.75792969 11.49949219 11.26195312 12.06539062 11.78125 12.6484375 C18.61270826 20.34968355 26.25390625 29.11152605 26.25390625 39.93359375 C26.91390625 39.93359375 27.57390625 39.93359375 28.25390625 39.93359375 C38.17758967 67.65930469 37.83338102 94.91177781 25.34008789 121.93017578 C22.52996227 127.69510937 19.24849727 132.90900729 15.25390625 137.93359375 C14.59648437 138.79082031 13.9390625 139.64804688 13.26171875 140.53125 C11.60867027 142.67888527 9.94000326 144.81187897 8.25390625 146.93359375 C11.26429082 153.40662724 16.16792295 158.02754609 21.59375 162.53515625 C23.96636452 164.53373507 26.11803478 166.685308 28.25390625 168.93359375 C28.7334375 169.40667969 29.21296875 169.87976563 29.70703125 170.3671875 C32.10962153 172.90838876 33.23144682 174.39456735 33.37890625 177.93359375 C31.51024319 182.91669525 27.96953621 187.36143195 23.25390625 189.93359375 C20.31640625 190.43359375 20.31640625 190.43359375 17.25390625 189.93359375 C15.26573608 188.31166546 13.87976809 186.87834009 12.25390625 184.93359375 C10.92293491 183.43149752 9.58941142 181.93166041 8.25390625 180.43359375 C7.56296875 179.65113281 6.87203125 178.86867187 6.16015625 178.0625 C3.94496314 175.58856507 1.63147231 173.25172066 -0.74609375 170.93359375 C-2.18494288 169.49744415 -3.62235195 168.05985085 -5.05859375 166.62109375 C-5.75597656 165.92371094 -6.45335937 165.22632813 -7.171875 164.5078125 C-7.69136719 163.98832031 -8.21085938 163.46882812 -8.74609375 162.93359375 C-12.70774051 164.42841586 -16.37506907 166.2770295 -20.12109375 168.24609375 C-27.44245515 171.98592958 -34.85208957 174.63454361 -42.74609375 176.93359375 C-43.55949219 177.18109375 -44.37289062 177.42859375 -45.2109375 177.68359375 C-68.10371426 183.47719631 -94.82902659 177.21087747 -114.921875 165.71484375 C-119.12612284 163.06320196 -122.96431312 160.15302782 -126.74609375 156.93359375 C-127.81730469 156.07894531 -127.81730469 156.07894531 -128.91015625 155.20703125 C-146.78915802 140.36051035 -159.49982505 117.00075823 -162.46484375 93.96484375 C-164.00102922 75.4518394 -163.75368823 56.38387804 -156.74609375 38.93359375 C-156.483125 38.258125 -156.22015625 37.58265625 -155.94921875 36.88671875 C-149.59983919 21.62592929 -140.63798936 9.33397053 -127.74609375 -1.06640625 C-126.8746875 -1.78699219 -126.00328125 -2.50757812 -125.10546875 -3.25 C-88.94474307 -31.91752718 -34.95284301 -29.43907705 0 0 Z " fill="#FBFCFC" transform="translate(172.74609375,38.06640625)"/>
<path d="M0 0 C2.45160397 2.15782527 4.70723914 4.37075278 6.81640625 6.87109375 C7.68458984 7.89396484 7.68458984 7.89396484 8.5703125 8.9375 C9.12589844 9.59621094 9.68148437 10.25492188 10.25390625 10.93359375 C10.75792969 11.49949219 11.26195312 12.06539062 11.78125 12.6484375 C18.61270826 20.34968355 26.25390625 29.11152605 26.25390625 39.93359375 C26.91390625 39.93359375 27.57390625 39.93359375 28.25390625 39.93359375 C38.17758967 67.65930469 37.83338102 94.91177781 25.34008789 121.93017578 C22.52996227 127.69510937 19.24849727 132.90900729 15.25390625 137.93359375 C14.59648437 138.79082031 13.9390625 139.64804688 13.26171875 140.53125 C11.60867027 142.67888527 9.94000326 144.81187897 8.25390625 146.93359375 C11.26429082 153.40662724 16.16792295 158.02754609 21.59375 162.53515625 C23.96636452 164.53373507 26.11803478 166.685308 28.25390625 168.93359375 C28.7334375 169.40667969 29.21296875 169.87976563 29.70703125 170.3671875 C32.10962153 172.90838876 33.23144682 174.39456735 33.37890625 177.93359375 C31.51024319 182.91669525 27.96953621 187.36143195 23.25390625 189.93359375 C20.31640625 190.43359375 20.31640625 190.43359375 17.25390625 189.93359375 C15.26573608 188.31166546 13.87976809 186.87834009 12.25390625 184.93359375 C10.92293491 183.43149752 9.58941142 181.93166041 8.25390625 180.43359375 C7.56296875 179.65113281 6.87203125 178.86867187 6.16015625 178.0625 C3.94496314 175.58856507 1.63147231 173.25172066 -0.74609375 170.93359375 C-2.18494288 169.49744415 -3.62235195 168.05985085 -5.05859375 166.62109375 C-5.75597656 165.92371094 -6.45335937 165.22632813 -7.171875 164.5078125 C-7.69136719 163.98832031 -8.21085938 163.46882812 -8.74609375 162.93359375 C-12.70774051 164.42841586 -16.37506907 166.2770295 -20.12109375 168.24609375 C-27.44245515 171.98592958 -34.85208957 174.63454361 -42.74609375 176.93359375 C-43.55949219 177.18109375 -44.37289062 177.42859375 -45.2109375 177.68359375 C-68.10371426 183.47719631 -94.82902659 177.21087747 -114.921875 165.71484375 C-119.12612284 163.06320196 -122.96431312 160.15302782 -126.74609375 156.93359375 C-127.81730469 156.07894531 -127.81730469 156.07894531 -128.91015625 155.20703125 C-146.78915802 140.36051035 -159.49982505 117.00075823 -162.46484375 93.96484375 C-164.00102922 75.4518394 -163.75368823 56.38387804 -156.74609375 38.93359375 C-156.483125 38.258125 -156.22015625 37.58265625 -155.94921875 36.88671875 C-149.59983919 21.62592929 -140.63798936 9.33397053 -127.74609375 -1.06640625 C-126.8746875 -1.78699219 -126.00328125 -2.50757812 -125.10546875 -3.25 C-88.94474307 -31.91752718 -34.95284301 -29.43907705 0 0 Z M-124.1484375 26.60546875 C-126.13187091 28.98411143 -127.96934008 31.39779734 -129.74609375 33.93359375 C-130.21402344 34.60132813 -130.68195313 35.2690625 -131.1640625 35.95703125 C-135.3230646 42.63702847 -137.18807218 50.31855563 -139.1940918 57.86010742 C-139.55571537 59.21847496 -139.93169678 60.5731198 -140.32348633 61.9230957 C-141.73081029 66.98958745 -142.09490816 71.74839014 -142.05859375 76.99609375 C-142.05512939 77.8173877 -142.05166504 78.63868164 -142.0480957 79.48486328 C-141.88031601 89.06406386 -140.96164886 98.70490706 -135.74609375 106.93359375 C-135.10824707 108.48264998 -134.50379465 110.04588121 -133.93359375 111.62109375 C-127.62202674 127.43494615 -115.72020266 139.86711627 -100.74609375 147.93359375 C-99.92753906 148.40152344 -99.10898438 148.86945313 -98.265625 149.3515625 C-81.20772285 158.59916923 -60.1159087 159.22155204 -41.74609375 153.93359375 C-21.52925712 147.6114902 -5.40976974 132.70994168 4.9765625 114.3828125 C13.02853695 98.94370553 16.26838458 74.84526579 11.25390625 57.93359375 C10.59390625 57.93359375 9.93390625 57.93359375 9.25390625 57.93359375 C9.14433594 57.30453125 9.03476563 56.67546875 8.921875 56.02734375 C5.1736079 35.79279615 -6.65155959 22.18404038 -23.12109375 10.64453125 C-29.12753669 6.72961755 -34.48286465 4.13853125 -41.37109375 2.24609375 C-42.1084375 2.03404297 -42.84578125 1.82199219 -43.60546875 1.60351562 C-74.45288001 -7.15869707 -103.16435842 3.26707836 -124.1484375 26.60546875 Z " fill="#727CFB" transform="translate(172.74609375,38.06640625)"/>
<path d="M0 0 C1.051875 -0.00386719 2.10375 -0.00773437 3.1875 -0.01171875 C4.280625 -0.00011719 5.37375 0.01148437 6.5 0.0234375 C7.593125 0.01183594 8.68625 0.00023438 9.8125 -0.01171875 C10.864375 -0.00785156 11.91625 -0.00398438 13 0 C13.9590625 0.00338379 14.918125 0.00676758 15.90625 0.01025391 C19.04147188 0.4794748 20.37832901 1.02989572 22.5 3.3984375 C22.95410156 6.30932617 22.95410156 6.30932617 22.890625 9.81640625 C22.87773438 11.07001953 22.86484375 12.32363281 22.8515625 13.61523438 C22.81804687 14.92556641 22.78453125 16.23589844 22.75 17.5859375 C22.72993307 18.9211976 22.71168262 20.25648633 22.6953125 21.59179688 C22.64809803 24.86139896 22.58225184 28.12955942 22.5 31.3984375 C23.26666992 31.38796387 24.03333984 31.37749023 24.82324219 31.36669922 C28.29879474 31.32511051 31.77429491 31.29910199 35.25 31.2734375 C36.4565625 31.25667969 37.663125 31.23992187 38.90625 31.22265625 C40.06640625 31.21621094 41.2265625 31.20976563 42.421875 31.203125 C43.49018555 31.19265137 44.55849609 31.18217773 45.65917969 31.17138672 C48.50975926 31.3992175 50.13077675 31.83156002 52.5 33.3984375 C54.55592456 37.51028663 53.72909008 42.81678038 53.75 47.3359375 C53.770625 48.44646484 53.79125 49.55699219 53.8125 50.70117188 C53.82023437 52.29735352 53.82023437 52.29735352 53.828125 53.92578125 C53.8374707 54.90281006 53.84681641 55.87983887 53.85644531 56.88647461 C53.5 59.3984375 53.5 59.3984375 52.38061523 61.22216797 C49.59434443 62.96489843 47.34550899 62.73570685 44.08203125 62.69140625 C42.82841797 62.68173828 41.57480469 62.67207031 40.28320312 62.66210938 C38.97287109 62.63697266 37.66253906 62.61183594 36.3125 62.5859375 C34.97722837 62.57088717 33.64194063 62.55719937 32.30664062 62.54492188 C29.03735424 62.50951444 25.76887907 62.4601264 22.5 62.3984375 C22.51571045 63.23093018 22.5314209 64.06342285 22.54760742 64.92114258 C22.59876642 68.01291606 22.6363648 71.10447368 22.66479492 74.1965332 C22.68728333 76.19171451 22.72540198 78.18669963 22.76367188 80.18164062 C22.77333984 81.43525391 22.78300781 82.68886719 22.79296875 83.98046875 C22.8086792 85.13780518 22.82438965 86.2951416 22.84057617 87.48754883 C22.5 90.3984375 22.5 90.3984375 21.36474609 92.27905273 C18.6553906 93.90544641 16.51536127 93.75321078 13.37109375 93.7265625 C12.17162109 93.72140625 10.97214844 93.71625 9.73632812 93.7109375 C7.8559082 93.68 7.8559082 93.68 5.9375 93.6484375 C4.68001953 93.64328125 3.42253906 93.638125 2.12695312 93.6328125 C-7.1916564 93.5526093 -7.1916564 93.5526093 -9.5 92.3984375 C-9.5 82.4984375 -9.5 72.5984375 -9.5 62.3984375 C-17.87675963 62.5169062 -17.87675963 62.5169062 -26.25292969 62.66870117 C-27.82155762 62.67994019 -27.82155762 62.67994019 -29.421875 62.69140625 C-30.49018555 62.7071167 -31.55849609 62.72282715 -32.65917969 62.73901367 C-35.94035069 62.34564537 -37.28972196 61.85513719 -39.5 59.3984375 C-40.00170898 56.81054688 -40.00170898 56.81054688 -39.99609375 53.7421875 C-39.99673828 52.63746094 -39.99738281 51.53273437 -39.99804688 50.39453125 C-39.96807617 48.66396484 -39.96807617 48.66396484 -39.9375 46.8984375 C-39.94458984 45.74472656 -39.95167969 44.59101562 -39.95898438 43.40234375 C-39.89552417 35.03536021 -39.89552417 35.03536021 -38.36035156 32.56323242 C-35.638864 30.85926691 -33.49131079 31.06053171 -30.30078125 31.10546875 C-28.48803711 31.1199707 -28.48803711 31.1199707 -26.63867188 31.13476562 C-24.7447168 31.1724707 -24.7447168 31.1724707 -22.8125 31.2109375 C-20.90114258 31.23124023 -20.90114258 31.23124023 -18.95117188 31.25195312 C-15.80035943 31.28735551 -12.65038955 31.3367396 -9.5 31.3984375 C-9.52094727 30.56594482 -9.54189453 29.73345215 -9.56347656 28.87573242 C-9.63168816 25.78397716 -9.68181724 22.69260553 -9.71972656 19.6003418 C-9.74971281 17.60504736 -9.80053786 15.61010168 -9.8515625 13.61523438 C-9.86445312 12.36162109 -9.87734375 11.10800781 -9.890625 9.81640625 C-9.91157227 8.65906982 -9.93251953 7.5017334 -9.95410156 6.30932617 C-9.5 3.3984375 -9.5 3.3984375 -7.81933594 1.5222168 C-5.0339697 0.17263355 -3.09126714 0.01090669 0 0 Z " fill="#737CFC" transform="translate(101.5,70.6015625)"/>
<path d="M0 0 C7.95375464 5.51273449 13.8255956 11.3646803 17.0625 20.6875 C17.5575 24.6475 17.5575 24.6475 18.0625 28.6875 C11.4625 28.6875 4.8625 28.6875 -1.9375 28.6875 C-2.9275 26.0475 -3.9175 23.4075 -4.9375 20.6875 C-6.95113899 18.20579964 -9.32184695 16.50881156 -11.9375 14.6875 C-12.80375 14.06875 -13.67 13.45 -14.5625 12.8125 C-23.02817543 9.99060819 -32.86980294 10.97379818 -40.9375 14.6875 C-46.86092427 17.99117107 -49.70819649 22.90007647 -52.05859375 29.14453125 C-54.73246471 39.92320218 -54.23274709 53.82057792 -48.84765625 63.68359375 C-47.92563897 65.05185428 -46.93846552 66.37589001 -45.9375 67.6875 C-45.9375 68.3475 -45.9375 69.0075 -45.9375 69.6875 C-45.215625 69.955625 -44.49375 70.22375 -43.75 70.5 C-40.9375 71.6875 -40.9375 71.6875 -38.5 73.25 C-35.48328059 74.94230601 -33.38684302 75.36209028 -29.9375 75.6875 C-29.19371094 75.76355469 -28.44992187 75.83960938 -27.68359375 75.91796875 C-20.76505 76.318573 -15.66726057 74.57030478 -9.9375 70.6875 C-7.49848872 68.0618391 -7.49848872 68.0618391 -5.9375 65.6875 C-5.2775 65.6875 -4.6175 65.6875 -3.9375 65.6875 C-3.2775 63.3775 -2.6175 61.0675 -1.9375 58.6875 C4.3325 58.6875 10.6025 58.6875 17.0625 58.6875 C17.0625 68.74928653 13.18623392 74.75862829 6.4375 82.0625 C1.25418094 86.9878258 -4.17597922 89.54382102 -10.9375 91.6875 C-12.05382812 92.05230469 -13.17015625 92.41710937 -14.3203125 92.79296875 C-25.62298233 95.58812144 -39.31094815 94.34729782 -49.6875 88.9375 C-62.89426637 79.79435405 -70.35329249 68.32591218 -73.9375 52.6875 C-74.32984718 49.00812587 -74.35910446 45.38478715 -74.3125 41.6875 C-74.32990234 40.30691406 -74.32990234 40.30691406 -74.34765625 38.8984375 C-74.31897634 32.11085914 -73.9790307 23.7290307 -68.9375 18.6875 C-68.586875 17.676875 -68.23625 16.66625 -67.875 15.625 C-64.47249794 7.41795987 -55.72452847 0.59288471 -47.9375 -3.3125 C-31.76894784 -9.67292309 -15.02174207 -9.11154847 0 0 Z " fill="#727AFB" transform="translate(323.9375,81.3125)"/>
<path d="M0 0 C0.86625 0.5775 1.7325 1.155 2.625 1.75 C7.54082797 6.40710018 9.22552711 11.25054799 9.45410156 17.86523438 C9.45347441 20.10817263 9.43124123 22.35117943 9.390625 24.59375 C9.38496521 25.78101685 9.37930542 26.96828369 9.37347412 28.19152832 C9.35119009 31.96143931 9.30100585 35.73037913 9.25 39.5 C9.22992482 42.06509038 9.21167584 44.63019575 9.1953125 47.1953125 C9.151351 53.46391247 9.08237637 59.73179191 9 66 C3.06 66 -2.88 66 -9 66 C-9 63.36 -9 60.72 -9 58 C-9.556875 58.39832031 -10.11375 58.79664063 -10.6875 59.20703125 C-19.30598196 65.19047059 -26.31859649 68.29246468 -37 67 C-43.84248737 65.43459641 -47.92878558 62.82692378 -51.84375 57 C-52.2253125 56.34 -52.606875 55.68 -53 55 C-53.37511719 54.37867188 -53.75023437 53.75734375 -54.13671875 53.1171875 C-56.33296212 47.73092548 -55.64435868 40.96887375 -53.875 35.5625 C-49.34491236 29.37138023 -43.53479606 25.87482286 -36.0234375 24.42578125 C-30.72807859 23.72760022 -25.39256574 23.89448892 -20.0625 23.9375 C-18.46438477 23.94426758 -18.46438477 23.94426758 -16.83398438 23.95117188 C-14.22259709 23.96288213 -11.61132876 23.97928276 -9 24 C-9.08768248 22.4156683 -9.19587329 20.83246433 -9.3125 19.25 C-9.37050781 18.36828125 -9.42851563 17.4865625 -9.48828125 16.578125 C-10.0712804 13.64087735 -11.01209495 12.20799564 -13 10 C-17.34171867 7.15667072 -21.99189155 7.48780709 -27 8 C-32.21827498 9.99848829 -32.27090805 11.5418161 -35 17 C-40.94 17 -46.88 17 -53 17 C-53 9.9142829 -51.45137981 7.23857119 -47 2 C-44.47291288 -0.24154056 -41.82910187 -2.16017896 -39 -4 C-38.01 -4.66 -37.02 -5.32 -36 -6 C-23.52452975 -8.71205875 -10.35130582 -7.9440254 0 0 Z " fill="#757DFA" transform="translate(533,108)"/>
<path d="M0 0 C6.27 0 12.54 0 19 0 C19 17.49 19 34.98 19 53 C24.15733761 48.72728795 24.15733761 48.72728795 28.5625 44 C31.24911103 40.84896387 34.07100978 37.92899022 37 35 C37.37125 34.31292969 37.7425 33.62585938 38.125 32.91796875 C39.89902767 30.04021365 41.03500528 28.7139421 44 27 C50.92062373 25.95798642 58.04570194 26.51401223 65 27 C62.56419488 32.03046709 59.50245286 35.63958414 55.25 39.25 C51.39227826 42.53301459 48.1414581 46.15146559 44.83203125 49.9765625 C42.74959479 52.27656695 40.51848846 54.18983642 38 56 C39.6554136 59.77470684 42.09073449 62.85030538 44.625 66.0625 C45.53362633 67.22963323 46.44116403 68.39761472 47.34765625 69.56640625 C47.7977002 70.14664551 48.24774414 70.72688477 48.71142578 71.32470703 C53.67444175 77.77719198 58.34530734 84.44847961 63 91.125 C63.39840088 91.69412109 63.79680176 92.26324219 64.20727539 92.84960938 C67 96.88169421 67 96.88169421 67 98 C63.25058747 98.17432891 59.50221491 98.28085841 55.75 98.375 C54.68652344 98.42527344 53.62304688 98.47554688 52.52734375 98.52734375 C49.57095132 98.58312474 46.90295825 98.56896157 44 98 C41.4655493 95.31348225 40 93.75717958 40 90 C39.34 90 38.68 90 38 90 C36.51953125 87.91015625 36.51953125 87.91015625 34.8125 85.0625 C31.53413607 79.74548959 27.93557971 74.84471059 24 70 C22.02 70.99 22.02 70.99 20 72 C19.67 80.91 19.34 89.82 19 99 C12.73 99 6.46 99 0 99 C0 66.33 0 33.66 0 0 Z " fill="#747BFA" transform="translate(742,75)"/>
<path d="M0 0 C5.04384305 4.69967493 6.85596664 10.89474562 7.18275452 17.68696594 C7.18053391 18.56410751 7.17831329 19.44124908 7.17602539 20.3449707 C7.17591209 21.84596062 7.17591209 21.84596062 7.17579651 23.37727356 C7.17063522 24.4451561 7.16547394 25.51303864 7.16015625 26.61328125 C7.1587413 27.71600876 7.15732635 28.81873627 7.15586853 29.95487976 C7.15028004 33.46994767 7.13772959 36.98495141 7.125 40.5 C7.11998352 42.88606679 7.11542087 45.27213457 7.11132812 47.65820312 C7.10031437 53.50132673 7.08305758 59.34440249 7.0625 65.1875 C1.1225 65.1875 -4.8175 65.1875 -10.9375 65.1875 C-10.9468457 63.79515137 -10.95619141 62.40280273 -10.96582031 60.96826172 C-11.00576397 55.79069303 -11.07153582 50.61371579 -11.14501953 45.43652344 C-11.17320362 43.19799409 -11.19443086 40.9593657 -11.20849609 38.72070312 C-11.22996048 35.49818306 -11.2766306 32.27685062 -11.328125 29.0546875 C-11.32935364 28.05758759 -11.33058228 27.06048767 -11.33184814 26.03317261 C-11.45594666 20.11402813 -12.02697899 16.71351562 -15.9375 12.1875 C-19.88672472 8.9854259 -22.92732028 8.66920555 -27.9375 9.1875 C-32.58151376 10.60431776 -35.50558599 12.07354827 -38.12341309 16.24664307 C-39.83036224 20.31616443 -39.54151715 24.70652763 -39.546875 29.0546875 C-39.56341125 30.08941193 -39.57994751 31.12413635 -39.59698486 32.19021606 C-39.6454017 35.48103815 -39.66682242 38.77139829 -39.6875 42.0625 C-39.71566486 44.29950233 -39.74559301 46.5364832 -39.77734375 48.7734375 C-39.85115944 54.24475364 -39.90077303 59.71581428 -39.9375 65.1875 C-45.8775 65.1875 -51.8175 65.1875 -57.9375 65.1875 C-57.9600528 56.07790511 -57.97841611 46.96832863 -57.98931217 37.8587122 C-57.99454056 33.62918629 -58.0016374 29.3996804 -58.01293945 25.17016602 C-58.02376991 21.09181457 -58.02977717 17.01348243 -58.03237724 12.93511772 C-58.03423121 11.37572361 -58.03785127 9.8163306 -58.04323006 8.25694466 C-58.05044262 6.08020838 -58.05149085 3.90355286 -58.05102539 1.72680664 C-58.053246 0.48548477 -58.05546661 -0.7558371 -58.05775452 -2.03477478 C-57.9375 -4.8125 -57.9375 -4.8125 -56.9375 -5.8125 C-54.07482433 -5.88575168 -51.236781 -5.90488205 -48.375 -5.875 C-47.56869141 -5.87048828 -46.76238281 -5.86597656 -45.93164062 -5.86132812 C-43.93356244 -5.84950518 -41.93552217 -5.83156914 -39.9375 -5.8125 C-39.6075 -3.5025 -39.2775 -1.1925 -38.9375 1.1875 C-38.34582031 0.69378906 -37.75414062 0.20007813 -37.14453125 -0.30859375 C-36.35433594 -0.94925781 -35.56414063 -1.58992188 -34.75 -2.25 C-33.97269531 -2.88808594 -33.19539062 -3.52617188 -32.39453125 -4.18359375 C-22.61274599 -10.66849749 -8.57454006 -6.70503866 0 0 Z " fill="#7279FC" transform="translate(720.9375,107.8125)"/>
<path d="M0 0 C6.27 0 12.54 0 19 0 C19.00410889 1.48322754 19.00821777 2.96645508 19.01245117 4.49462891 C19.03425405 10.00767573 19.08855716 15.52001004 19.15258789 21.03271484 C19.17575755 23.41675986 19.19016115 25.80090709 19.19555664 28.18505859 C19.20485321 31.61620707 19.24586281 35.04575017 19.29296875 38.4765625 C19.2890361 39.53928375 19.28510345 40.602005 19.28105164 41.69692993 C19.3828785 48.13060924 19.3828785 48.13060924 22.35668945 53.65771484 C26.47334492 57.30555751 29.64861555 57.26756922 35 57 C39.89645219 56.23992106 39.89645219 56.23992106 43.3125 53.0625 C43.539375 52.381875 43.76625 51.70125 44 51 C44.66 50.01 45.32 49.02 46 48 C46.32677346 45.75979447 46.32677346 45.75979447 46.31884766 43.25317383 C46.33871735 42.29240433 46.35858704 41.33163483 46.37905884 40.3417511 C46.39061005 39.30729355 46.40216125 38.272836 46.4140625 37.20703125 C46.43342865 36.14586594 46.4527948 35.08470062 46.4727478 33.99137878 C46.53257833 30.59850122 46.57894321 27.2055898 46.625 23.8125 C46.66317655 21.51365699 46.70222809 19.21482833 46.7421875 16.91601562 C46.83828287 11.27746017 46.92230134 5.63883776 47 0 C52.61 0 58.22 0 64 0 C64 23.43 64 46.86 64 71 C58.39 71 52.78 71 47 71 C46.505 67.535 46.505 67.535 46 64 C45.50371094 64.48210937 45.00742187 64.96421875 44.49609375 65.4609375 C37.4693665 71.99432716 31.53760553 73.51126787 22 73.30859375 C15.78966748 72.66977048 10.98923151 70.41273673 6.6875 65.875 C0.61160326 57.69104359 -0.58049256 49.63445241 -0.390625 39.6484375 C-0.38496521 38.50839264 -0.37930542 37.36834778 -0.37347412 36.1937561 C-0.35125659 32.58705933 -0.30108613 28.9813916 -0.25 25.375 C-0.22991617 22.91537903 -0.21166872 20.45574233 -0.1953125 17.99609375 C-0.15143952 11.99700518 -0.08251274 5.99867648 0 0 Z " fill="#737BFB" transform="translate(353,102)"/>
<path d="M0 0 C6.27 0 12.54 0 19 0 C19 26.73 19 53.46 19 81 C33.19 81 47.38 81 62 81 C62 86.94 62 92.88 62 99 C41.54 99 21.08 99 0 99 C0 66.33 0 33.66 0 0 Z " fill="#747BF9" transform="translate(557,75)"/>
<path d="M0 0 C0 5.94 0 11.88 0 18 C-2.18625 18.0825 -4.3725 18.165 -6.625 18.25 C-12.38100341 18.65699014 -15.7960455 19.02959853 -20 23 C-22.09868217 26.14802325 -22.25962003 26.9602183 -22.31884766 30.56323242 C-22.33871735 31.48396042 -22.35858704 32.40468842 -22.37905884 33.35331726 C-22.39638565 34.83938225 -22.39638565 34.83938225 -22.4140625 36.35546875 C-22.43342865 37.37224197 -22.4527948 38.3890152 -22.4727478 39.43659973 C-22.53256741 42.68681427 -22.57893876 45.93706417 -22.625 49.1875 C-22.66317756 51.38998948 -22.70222916 53.59246399 -22.7421875 55.79492188 C-22.83827103 61.19649316 -22.92229349 66.59813435 -23 72 C-28.94 72 -34.88 72 -41 72 C-41 48.9 -41 25.8 -41 2 C-35.06 2 -29.12 2 -23 2 C-23 4.64 -23 7.28 -23 10 C-22.34 10 -21.68 10 -21 10 C-20.9071875 9.13375 -20.9071875 9.13375 -20.8125 8.25 C-19.62962404 4.97434351 -17.89516912 3.88815378 -15 2 C-9.51329718 -0.07045389 -6.18188861 0 0 0 Z " fill="#7077FA" transform="translate(472,101)"/>
<path d="M0 0 C5.94 0 11.88 0 18 0 C18 23.76 18 47.52 18 72 C12.06 72 6.12 72 0 72 C0 48.24 0 24.48 0 0 Z " fill="#727AFD" transform="translate(630,102)"/>
<path d="M0 0 C1.01771484 0.00451172 2.03542969 0.00902344 3.08398438 0.01367188 C5.57688509 0.02537563 8.06966074 0.04177152 10.5625 0.0625 C9.9025 0.7225 9.2425 1.3825 8.5625 2.0625 C9.0575 3.5475 9.0575 3.5475 9.5625 5.0625 C9.2325 5.7225 8.9025 6.3825 8.5625 7.0625 C9.2225 7.3925 9.8825 7.7225 10.5625 8.0625 C9.33273437 8.09988281 8.10296875 8.13726562 6.8359375 8.17578125 C5.20309599 8.24147028 3.57028482 8.30791659 1.9375 8.375 C1.12925781 8.39755859 0.32101562 8.42011719 -0.51171875 8.44335938 C-5.49342742 8.66611871 -9.14188127 9.28026079 -13.4375 12.0625 C-15.91003471 15.77130207 -16.0912695 18.76270831 -15.4375 23.0625 C-14.11588573 26.13123898 -14.11588573 26.13123898 -11.4375 28.0625 C-5.41042262 29.64337275 -1.99551686 29.15028715 3.5625 26.0625 C5.6798297 24.48735627 7.59885744 22.83456768 9.5625 21.0625 C9.5625 24.0625 9.5625 24.0625 7.59375 26.03515625 C6.7584375 26.72480469 5.923125 27.41445312 5.0625 28.125 C3.52782946 29.39678716 2.01873947 30.70160954 0.5625 32.0625 C0.5625 32.7225 0.5625 33.3825 0.5625 34.0625 C1.2225 34.0625 1.8825 34.0625 2.5625 34.0625 C2.5625 34.7225 2.5625 35.3825 2.5625 36.0625 C1.9025 36.0625 1.2425 36.0625 0.5625 36.0625 C0.5625 36.7225 0.5625 37.3825 0.5625 38.0625 C1.5525 38.0625 2.5425 38.0625 3.5625 38.0625 C3.8925 37.0725 4.2225 36.0825 4.5625 35.0625 C7.0375 34.5675 7.0375 34.5675 9.5625 34.0625 C4.84978279 39.71776065 -0.88822944 42.4209362 -8.1796875 43.44921875 C-14.80443854 43.72134025 -20.77708998 42.63123486 -26.4375 39.0625 C-28.86081306 36.61410088 -30.71635048 34.0396235 -32.4375 31.0625 C-32.81261719 30.44117188 -33.18773437 29.81984375 -33.57421875 29.1796875 C-35.77046212 23.79342548 -35.08185868 17.03137375 -33.3125 11.625 C-28.77547512 5.42439933 -22.95534889 1.92499843 -15.4296875 0.48828125 C-10.3069618 -0.18713848 -5.15664614 -0.04361509 0 0 Z " fill="#7178FB" transform="translate(512.4375,131.9375)"/>
<path d="M0 0 C1.875 1.75 1.875 1.75 3 3 C2.67 3.66 2.34 4.32 2 5 C0.02 3.35 -1.96 1.7 -4 0 C-3.505 1.485 -3.505 1.485 -3 3 C-3.639375 3.309375 -4.27875 3.61875 -4.9375 3.9375 C-7.3829786 5.197292 -7.77501801 5.55003602 -9 8 C-9.66666667 9.33333333 -10.33333333 10.66666667 -11 12 C-11.78375 11.34 -12.5675 10.68 -13.375 10 C-17.65185571 7.14537659 -22.03726322 7.32778983 -27 8 C-32.21827498 9.99848829 -32.27090805 11.5418161 -35 17 C-40.94 17 -46.88 17 -53 17 C-53 9.9142829 -51.45137981 7.23857119 -47 2 C-44.47291288 -0.24154056 -41.82910187 -2.16017896 -39 -4 C-38.01 -4.66 -37.02 -5.32 -36 -6 C-23.59756434 -8.69618166 -10.25896908 -8.00700026 0 0 Z " fill="#737AF8" transform="translate(533,108)"/>
<path d="M0 0 C0.98613281 0.00322266 1.97226562 0.00644531 2.98828125 0.00976562 C4.02082031 0.01814453 5.05335938 0.02652344 6.1171875 0.03515625 C7.67759766 0.04192383 7.67759766 0.04192383 9.26953125 0.04882812 C11.84380712 0.06063673 14.41796896 0.0771055 16.9921875 0.09765625 C17.3344599 7.63560897 15.9247254 11.30369427 10.9921875 17.09765625 C6.99313469 20.55629652 2.18372735 21.25812203 -3.0078125 21.09765625 C-6.69295549 19.57553197 -9.17756009 17.661832 -11.0078125 14.09765625 C-11.53979261 9.30983525 -11.73290264 7.2336308 -9.1328125 3.16015625 C-5.97586353 0.09605872 -4.28865202 -0.02464743 0 0 Z " fill="#F9FBFB" transform="translate(507.0078125,140.90234375)"/>
<path d="M0 0 C3.85544798 1.99657127 5.59805092 3.39707638 8 7 C8.1953125 9.48046875 8.1953125 9.48046875 8.125 12.1875 C8.10695313 13.08855469 8.08890625 13.98960937 8.0703125 14.91796875 C8.04710937 15.60503906 8.02390625 16.29210937 8 17 C7.35039307 17.01981934 6.70078613 17.03963867 6.03149414 17.06005859 C3.04147478 17.15627933 0.05206352 17.26555899 -2.9375 17.375 C-3.95908203 17.4059375 -4.98066406 17.436875 -6.03320312 17.46875 C-13.73603718 17.76406632 -21.46578815 18.26844255 -28.375 22 C-29.00148438 22.33 -29.62796875 22.66 -30.2734375 23 C-31.88822803 23.9352633 -33.44732506 24.96488337 -35 26 C-34.8125 23.625 -34.8125 23.625 -34 21 C-30.72271751 19.13992075 -28.8340246 19 -25 19 C-24.67 18.01 -24.34 17.02 -24 16 C-23.34 16 -22.68 16 -22 16 C-22 14.68 -22 13.36 -22 12 C-26.29 11.67 -30.58 11.34 -35 11 C-35 10.67 -35 10.34 -35 10 C-26.585 9.505 -26.585 9.505 -18 9 C-17.01 7.02 -16.02 5.04 -15 3 C-10.72169301 -0.88936999 -5.4834617 -0.80716556 0 0 Z " fill="#F4F8FC" transform="translate(516,115)"/>
<path d="M0 0 C3.40563431 2.17380913 4.71751983 3.15255949 6 7 C6.375 10.375 6.375 10.375 6 14 C3.5625 16.875 3.5625 16.875 1 19 C0.67 19.33 0.34 19.66 0 20 C-4.61544489 20.58169863 -8.00133167 20.6241677 -12 18.125 C-15.32457746 14.59263645 -15.33439212 11.95333478 -15.2890625 7.26171875 C-14.86115823 3.91365699 -13.44926739 2.23933019 -11 0 C-7.14892525 -1.28369158 -3.87326613 -0.98907965 0 0 Z " fill="#737CF9" transform="translate(644,72)"/>
<path d="M0 0 C5.94 0 11.88 0 18 0 C18 23.76 18 47.52 18 72 C12.06 72 6.12 72 0 72 C0 48.24 0 24.48 0 0 Z M2 2 C2 24.44 2 46.88 2 70 C6.29 70 10.58 70 15 70 C16.30362595 68.92120693 16.30362595 68.92120693 16.12025452 66.33616638 C16.11803391 65.14813919 16.11581329 63.960112 16.11352539 62.73608398 C16.11367142 62.08244873 16.11381744 61.42881348 16.1139679 60.75537109 C16.11326883 58.58557872 16.10547678 56.41587121 16.09765625 54.24609375 C16.09579205 52.74536689 16.09436816 51.24463943 16.09336853 49.74391174 C16.08954352 45.78681774 16.0797134 41.82976022 16.06866455 37.87268066 C16.05845006 33.83765151 16.05387083 29.80261647 16.04882812 25.76757812 C16.0380911 17.84503344 16.02049445 9.92252546 16 2 C11.38 2 6.76 2 2 2 Z " fill="#767BEF" transform="translate(630,102)"/>
<path d="M0 0 C5.61 0 11.22 0 17 0 C17 0.33 17 0.66 17 1 C12.05 1 7.1 1 2 1 C2 23.44 2 45.88 2 69 C3.98 68.505 3.98 68.505 6 68 C7.74886981 67.93375493 9.50002748 67.91447405 11.25 67.9375 C12.58804688 67.95103516 12.58804688 67.95103516 13.953125 67.96484375 C14.62859375 67.97644531 15.3040625 67.98804688 16 68 C15.98667633 67.45400146 15.97335266 66.90800293 15.95962524 66.34545898 C15.82632894 60.63500659 15.73616174 54.92499978 15.67041016 49.21337891 C15.64033654 47.08526645 15.59946589 44.95727693 15.54736328 42.82958984 C15.47413268 39.76108396 15.44044901 36.6942238 15.4140625 33.625 C15.38309479 32.68197021 15.35212708 31.73894043 15.32022095 30.76733398 C15.31715217 24.67070473 16.54102158 21.24159956 20.42733765 16.52294922 C22.42293236 14.59043688 24.30045236 13.63518768 27 13 C26.59007812 13.47050781 26.18015625 13.94101563 25.7578125 14.42578125 C25.21898437 15.04839844 24.68015625 15.67101562 24.125 16.3125 C23.32449219 17.23482422 23.32449219 17.23482422 22.5078125 18.17578125 C19.77818308 21.47820855 18.74918148 23.42588437 18.68115234 27.6550293 C18.66128265 28.59577805 18.64141296 29.53652679 18.62094116 30.50578308 C18.60938995 31.51836685 18.59783875 32.53095062 18.5859375 33.57421875 C18.56657135 34.61318802 18.5472052 35.65215729 18.5272522 36.72261047 C18.46742701 40.04415656 18.42105896 43.36573724 18.375 46.6875 C18.33682295 48.93816624 18.29777139 51.18881782 18.2578125 53.43945312 C18.16172292 58.95951655 18.07770249 64.47964837 18 70 C12.06 70 6.12 70 0 70 C0 46.9 0 23.8 0 0 Z " fill="#7075E4" transform="translate(663,103)"/>
<path d="M0 0 C5.28 0 10.56 0 16 0 C16 23.1 16 46.2 16 70 C10.72 70 5.44 70 0 70 C0 67.03 0 64.06 0 61 C0.33 61 0.66 61 1 61 C1 63.31 1 65.62 1 68 C4.96 68 8.92 68 13 68 C13.33 45.89 13.66 23.78 14 1 C9.71 1 5.42 1 1 1 C1 15.19 1 29.38 1 44 C0.67 44 0.34 44 0 44 C0 29.48 0 14.96 0 0 Z " fill="#6970EE" transform="translate(401,103)"/>
<path d="M0 0 C6.27 0 12.54 0 19 0 C19 23.76 19 47.52 19 72 C18.67 72 18.34 72 18 72 C18 48.57 18 25.14 18 1 C12.39 1 6.78 1 1 1 C1.02094727 2.43311523 1.04189453 3.86623047 1.06347656 5.34277344 C1.13585481 10.65777604 1.18179229 15.97273504 1.21972656 21.28808594 C1.23984688 23.58894169 1.26714634 25.88974629 1.30175781 28.19042969 C1.35025612 31.49687317 1.37296478 34.80264085 1.390625 38.109375 C1.41127014 39.13867126 1.43191528 40.16796753 1.45318604 41.22845459 C1.45544041 48.39692044 1.45544041 48.39692044 -1.02441406 51.68066406 C-1.67635742 52.11604492 -2.32830078 52.55142578 -3 53 C-2.84080078 52.06140137 -2.68160156 51.12280273 -2.51757812 50.15576172 C-1.82484291 45.28388006 -1.78933357 40.42148638 -1.71875 35.5078125 C-1.68099167 33.48437496 -1.64323119 31.46093746 -1.60546875 29.4375 C-1.55162229 26.26401714 -1.49943831 23.09051096 -1.44775391 19.91699219 C-1.39622151 16.84301359 -1.33894559 13.76918058 -1.28125 10.6953125 C-1.26767456 9.7381131 -1.25409912 8.7809137 -1.2401123 7.79470825 C-1.21503601 6.47731155 -1.21503601 6.47731155 -1.18945312 5.13330078 C-1.17692505 4.35721466 -1.16439697 3.58112854 -1.15148926 2.78152466 C-1 1 -1 1 0 0 Z " fill="#BFC9FD" transform="translate(399,101)"/>
<path d="M0 0 C2.67464819 3.13038433 3.69239867 5.82076136 4.625 9.8125 C4.86476562 10.80894531 5.10453125 11.80539063 5.3515625 12.83203125 C10.61907525 38.56668689 5.40802792 64.83542029 -7.96484375 87.30078125 C-12.28800061 93.76266687 -12.28800061 93.76266687 -16 95 C-16 94.34 -16 93.68 -16 93 C-15.34 93 -14.68 93 -14 93 C-13.67 91.68 -13.34 90.36 -13 89 C-12.34 89 -11.68 89 -11 89 C-10.73316406 88.13761719 -10.46632812 87.27523437 -10.19140625 86.38671875 C-9.00685114 83.01947522 -7.572666 79.98239182 -5.9375 76.8125 C-4.42292815 73.86852783 -3.04722531 71.14167593 -2 68 C-1.34 68 -0.68 68 0 68 C0.05478516 67.44530029 0.10957031 66.89060059 0.16601562 66.3190918 C0.63575221 61.80742468 1.25968117 57.37884465 2.10424805 52.92333984 C4.21525082 41.66379022 4.70860007 30.4338248 5 19 C4.34 19 3.68 19 3 19 C1.89771304 14.59085217 1.92345464 10.51617599 2 6 C1.34 6 0.68 6 0 6 C0 4.02 0 2.04 0 0 Z " fill="#777EEA" transform="translate(201,82)"/>
<path d="M0 0 C6.6 0 13.2 0 20 0 C20 0.66 20 1.32 20 2 C14.06 2 8.12 2 2 2 C2 25.1 2 48.2 2 72 C1.34 72 0.68 72 0 72 C0 48.24 0 24.48 0 0 Z " fill="#C5CAFE" transform="translate(429,101)"/>
<path d="M0 0 C0.33 0 0.66 0 1 0 C1.78073228 3.44928359 2.12247152 6.62374888 2.11352539 10.1574707 C2.11344986 11.15813065 2.11337433 12.15879059 2.11329651 13.18977356 C2.10813522 14.2576561 2.10297394 15.32553864 2.09765625 16.42578125 C2.0962413 17.52850876 2.09482635 18.63123627 2.09336853 19.76737976 C2.08778004 23.28244767 2.07522959 26.79745141 2.0625 30.3125 C2.05748352 32.69856679 2.05292087 35.08463457 2.04882812 37.47070312 C2.03781437 43.31382673 2.02055758 49.15690249 2 55 C-3.28 54.67 -8.56 54.34 -14 54 C-14 53.67 -14 53.34 -14 53 C-9.71 53 -5.42 53 -1 53 C-1.00785522 50.69829834 -1.00785522 50.69829834 -1.01586914 48.35009766 C-1.03392771 42.6735085 -1.04543517 36.99692191 -1.05493164 31.3203125 C-1.05996989 28.86034722 -1.0668006 26.40038495 -1.07543945 23.94042969 C-1.08752723 20.41079975 -1.09323329 16.88120931 -1.09765625 13.3515625 C-1.10281754 12.24632233 -1.10797882 11.14108215 -1.11329651 10.00234985 C-1.11337204 8.98144257 -1.11344757 7.96053528 -1.11352539 6.90869141 C-1.115746 6.00712311 -1.11796661 5.10555481 -1.12025452 4.17666626 C-1 2 -1 2 0 0 Z " fill="#7F88F1" transform="translate(726,118)"/>
<path d="M0 0 C3.55553986 2.47341903 6.25265351 5.2253147 9.0625 8.5 C12.46859433 12.44589946 15.96730661 16.28889393 19.5625 20.0625 C20.10463135 20.65933594 20.6467627 21.25617188 21.20532227 21.87109375 C22.74136077 23.45764299 24.13862478 24.81081187 26 26 C30.11367045 26.00996046 31.5565957 25.34487001 34.8125 22.8125 C37.205317 19.736021 37.73201762 17.84108078 38 14 C37.01 13.34 36.02 12.68 35 12 C35 11.34 35 10.68 35 10 C37.46800047 11.15173355 39.04783565 12.04783565 41 14 C40.85591314 20.33982177 37.42740129 23.65090197 33.0625 27.875 C30.10910819 29.48594099 28.31485426 29.5412007 25 29 C23.01182983 27.37807171 21.62586184 25.94474634 20 24 C18.66902866 22.49790377 17.33550517 20.99806666 16 19.5 C15.3090625 18.71753906 14.618125 17.93507812 13.90625 17.12890625 C11.69105689 14.65497132 9.37756606 12.31812691 7 10 C5.56115087 8.5638504 4.1237418 7.1262571 2.6875 5.6875 C1.99011719 4.99011719 1.29273438 4.29273438 0.57421875 3.57421875 C0.05472656 3.05472656 -0.46476563 2.53523437 -1 2 C-4.07690655 3.1683786 -6.84544864 4.42965588 -9.625 6.1875 C-10.73875 6.785625 -11.8525 7.38375 -13 8 C-13.99 7.67 -14.98 7.34 -16 7 C-13 5 -13 5 -10.875 4 C-8.82955462 3.14139842 -8.82955462 3.14139842 -8 1 C-4.88155225 -0.03948258 -3.23905421 -0.45196105 0 0 Z " fill="#7177E8" transform="translate(165,199)"/>
<path d="M0 0 C0.99 0.33 1.98 0.66 3 1 C2.99214478 2.0372522 2.99214478 2.0372522 2.98413086 3.09545898 C2.963425 6.20946352 2.95036037 9.32345361 2.9375 12.4375 C2.92912109 13.52611328 2.92074219 14.61472656 2.91210938 15.73632812 C2.90888672 16.77080078 2.90566406 17.80527344 2.90234375 18.87109375 C2.89710693 19.82943115 2.89187012 20.78776855 2.88647461 21.77514648 C2.7494687 23.97285339 2.7494687 23.97285339 4 25 C5.901661 25.14594886 7.80835238 25.22734004 9.71484375 25.28125 C10.87564453 25.31863281 12.03644531 25.35601562 13.23242188 25.39453125 C14.45509766 25.42933594 15.67777344 25.46414062 16.9375 25.5 C19.34257263 25.56868002 21.74753464 25.64139064 24.15234375 25.71875 C25.22476318 25.74904297 26.29718262 25.77933594 27.40209961 25.81054688 C30 26 30 26 32 27 C32 34.92 32 42.84 32 51 C31.67 51 31.34 51 31 51 C31 43.41 31 35.82 31 28 C29.09734375 28.03480469 27.1946875 28.06960937 25.234375 28.10546875 C22.73959215 28.1336054 20.24479977 28.16090569 17.75 28.1875 C16.49574219 28.21263672 15.24148437 28.23777344 13.94921875 28.26367188 C12.74394531 28.27333984 11.53867188 28.28300781 10.296875 28.29296875 C9.18666992 28.3086792 8.07646484 28.32438965 6.93261719 28.34057617 C3.59714985 27.95321545 2.226384 27.51434744 0 25 C-0.45410156 22.36450195 -0.45410156 22.36450195 -0.390625 19.23828125 C-0.37773438 18.12001953 -0.36484375 17.00175781 -0.3515625 15.84960938 C-0.31804688 14.68236328 -0.28453125 13.51511719 -0.25 12.3125 C-0.23195312 11.13365234 -0.21390625 9.95480469 -0.1953125 8.74023438 C-0.14811859 5.82601074 -0.08229077 2.91340969 0 0 Z " fill="#7377E9" transform="translate(62,105)"/>
<path d="M0 0 C2.12280563 3.18420845 2.28019537 4.20537255 2.4140625 7.88671875 C2.45273438 8.82451172 2.49140625 9.76230469 2.53125 10.72851562 C2.57765625 12.19321289 2.57765625 12.19321289 2.625 13.6875 C2.68300781 15.16959961 2.68300781 15.16959961 2.7421875 16.68164062 C2.83645867 19.12090707 2.92206218 21.56016595 3 24 C8.15616043 24.6465043 13.16869639 25.10931871 18.375 25 C21.69015821 24.9314696 23.83499362 24.94499787 27 26 C27 26.66 27 27.32 27 28 C27.99 28 28.98 28 30 28 C29.67 28.66 29.34 29.32 29 30 C28.01 29.67 27.02 29.34 26 29 C24.0093556 28.85013589 22.01464609 28.75171962 20.01953125 28.68359375 C18.97128174 28.64548584 17.92303223 28.60737793 16.84301758 28.56811523 C15.51294678 28.52501221 14.18287598 28.48190918 12.8125 28.4375 C8.584375 28.293125 4.35625 28.14875 0 28 C0 18.76 0 9.52 0 0 Z " fill="#DCE8FD" transform="translate(124,74)"/>
<path d="M0 0 C0.66 0.33 1.32 0.66 2 1 C1.236875 1.7425 0.47375 2.485 -0.3125 3.25 C-5.20218718 8.18270152 -5.20218718 8.18270152 -6.43237305 14.76855469 C-6.45216721 15.70922791 -6.47196136 16.64990112 -6.49235535 17.61907959 C-6.50194023 19.13021332 -6.50194023 19.13021332 -6.51171875 20.671875 C-6.52966995 21.70942932 -6.54762115 22.74698364 -6.56611633 23.815979 C-6.62026377 27.1272781 -6.65412985 30.43843267 -6.6875 33.75 C-6.72066909 35.99611388 -6.75515836 38.24220868 -6.79101562 40.48828125 C-6.8759931 45.99208331 -6.94278356 51.49584216 -7 57 C-10.96 56.67 -14.92 56.34 -19 56 C-19 55.67 -19 55.34 -19 55 C-15.7 55 -12.4 55 -9 55 C-9.04713135 53.01806641 -9.04713135 53.01806641 -9.09521484 50.99609375 C-9.20425598 46.06877262 -9.27285717 41.14155695 -9.32958984 36.21337891 C-9.35966346 34.08526645 -9.40053411 31.95727693 -9.45263672 29.82958984 C-9.52586732 26.76108396 -9.55955099 23.6942238 -9.5859375 20.625 C-9.61690521 19.68197021 -9.64787292 18.73894043 -9.67977905 17.76733398 C-9.68284025 11.68575962 -8.47756321 8.2677399 -4.58486938 3.57177734 C-3 2 -3 2 0 0 Z " fill="#7B7FE9" transform="translate(688,116)"/>
<path d="M0 0 C5.92726341 5.7752823 5.92726341 5.7752823 6.12025452 9.02481079 C6.11803391 9.85531952 6.11581329 10.68582825 6.11352539 11.54150391 C6.11344986 12.48232819 6.11337433 13.42315247 6.11329651 14.39248657 C6.10813522 15.41023163 6.10297394 16.42797668 6.09765625 17.4765625 C6.0962413 18.51694672 6.09482635 19.55733093 6.09336853 20.62924194 C6.08775866 23.96119021 6.07520447 27.29307195 6.0625 30.625 C6.05748627 32.88020736 6.05292314 35.13541578 6.04882812 37.390625 C6.03778603 42.92710614 6.02103827 48.46354832 6 54 C5.34 54 4.68 54 4 54 C3.67 38.49 3.34 22.98 3 7 C2.34 6.67 1.68 6.34 1 6 C0.375 2.9375 0.375 2.9375 0 0 Z " fill="#CAD5F9" transform="translate(704,119)"/>
<path d="M0 0 C6.27 0 12.54 0 19 0 C19 10.06178653 15.12373392 16.07112829 8.375 23.375 C3.32877807 28.16891083 -2.20427945 31.35587406 -9 33 C-11.3515625 32.61328125 -11.3515625 32.61328125 -13 32 C-11.0848421 31.18395001 -9.16781166 30.37229368 -7.25 29.5625 C-6.18265625 29.11003906 -5.1153125 28.65757812 -4.015625 28.19140625 C-1.6586159 27.26020447 0.52992835 26.5215928 3 26 C3 25.34 3 24.68 3 24 C4.98260426 22.31267723 6.9832342 20.64633943 9 19 C9.33 18.34 9.66 17.68 10 17 C10.66 17 11.32 17 12 17 C12.2475 16.195625 12.495 15.39125 12.75 14.5625 C14.26438199 10.24651132 16.10733162 6.16387044 18 2 C12.39 2 6.78 2 1 2 C0.67 3.65 0.34 5.3 0 7 C-0.93423645 3.98968256 -1.04449911 3.13349732 0 0 Z " fill="#6F75E8" transform="translate(322,140)"/>
<path d="M0 0 C0 0.99 0 1.98 0 3 C-1 4 -1 4 -3.68383789 4.11352539 C-4.85164795 4.10828857 -6.01945801 4.10305176 -7.22265625 4.09765625 C-8.48271484 4.09443359 -9.74277344 4.09121094 -11.04101562 4.08789062 C-12.38151109 4.07953403 -13.72200588 4.07106907 -15.0625 4.0625 C-16.40689942 4.0574866 -17.7513006 4.05292342 -19.09570312 4.04882812 C-22.39717941 4.03699488 -25.69856803 4.02050971 -29 4 C-28.95399658 4.82201904 -28.90799316 5.64403809 -28.8605957 6.4909668 C-28.66117834 10.22246876 -28.48658579 13.95473408 -28.3125 17.6875 C-28.23966797 18.98107422 -28.16683594 20.27464844 -28.09179688 21.60742188 C-28.03701172 22.85458984 -27.98222656 24.10175781 -27.92578125 25.38671875 C-27.83937378 27.10701294 -27.83937378 27.10701294 -27.7512207 28.86206055 C-28.02905438 32.36647299 -28.97293513 34.17137577 -31 37 C-40.01470449 36.46839258 -49.01236323 35.89495536 -58 35 C-58 34.67 -58 34.34 -58 34 C-56.87972412 33.970271 -56.87972412 33.970271 -55.73681641 33.93994141 C-52.36584395 33.84491789 -48.99551071 33.73514741 -45.625 33.625 C-44.449375 33.5940625 -43.27375 33.563125 -42.0625 33.53125 C-40.94101563 33.49257812 -39.81953125 33.45390625 -38.6640625 33.4140625 C-37.62717285 33.3826416 -36.5902832 33.3512207 -35.52197266 33.31884766 C-32.83190165 33.24045528 -32.83190165 33.24045528 -31 31 C-30.62731113 28.08811755 -30.62731113 28.08811755 -30.5859375 24.6796875 C-30.54726562 23.42285156 -30.50859375 22.16601562 -30.46875 20.87109375 C-30.4378125 19.55238281 -30.406875 18.23367187 -30.375 16.875 C-30.33681971 15.53513082 -30.29776794 14.19528617 -30.2578125 12.85546875 C-30.1632797 9.57045381 -30.07772844 6.28544862 -30 3 C-29.16227051 2.98018066 -28.32454102 2.96036133 -27.46142578 2.93994141 C-24.35634166 2.86189388 -21.25165461 2.77520365 -18.14697266 2.68261719 C-16.14113029 2.62545964 -14.13501082 2.57831404 -12.12890625 2.53125 C-10.24365234 2.47324219 -10.24365234 2.47324219 -8.3203125 2.4140625 C-7.15773926 2.3826416 -5.99516602 2.3512207 -4.79736328 2.31884766 C-1.86343518 2.27842131 -1.86343518 2.27842131 0 0 Z " fill="#CAD1FA" transform="translate(154,130)"/>
<path d="M0 0 C0.495 0.99 0.495 0.99 1 2 C-0.60463449 1.68991116 -2.20869231 1.37683713 -3.8125 1.0625 C-4.70582031 0.88847656 -5.59914063 0.71445313 -6.51953125 0.53515625 C-9 0 -9 0 -12 -1 C-23.22636167 -1.62774194 -32.77897913 -0.58902978 -43 4 C-43.99 4 -44.98 4 -46 4 C-46.33 4.99 -46.66 5.98 -47 7 C-50.44444444 10 -50.44444444 10 -53 10 C-53.268125 10.61875 -53.53625 11.2375 -53.8125 11.875 C-55 14 -55 14 -58 16 C-57.50583686 11.82812274 -55.32634126 10.12702321 -52.25 7.4375 C-50.95835937 6.29087891 -50.95835937 6.29087891 -49.640625 5.12109375 C-35.47978984 -6.25365993 -16.33851316 -6.55454261 0 0 Z " fill="#7177E8" transform="translate(318,78)"/>
<path d="M0 0 C-2.60111596 2.39302668 -3.9846765 2.99784933 -7.5625 3.5 C-10.86974362 3.72565682 -10.86974362 3.72565682 -12.75 5.1875 C-16.96585636 11.30049172 -17.46328799 16.20400084 -17.51171875 23.4296875 C-17.52966995 24.42001984 -17.54762115 25.41035217 -17.56611633 26.43069458 C-17.62008901 29.57875371 -17.65407356 32.72666233 -17.6875 35.875 C-17.72068454 38.01564588 -17.75517525 40.15627194 -17.79101562 42.296875 C-17.8758082 47.5311412 -17.94268184 52.76536376 -18 58 C-24.27 58 -30.54 58 -37 58 C-37 57.67 -37 57.34 -37 57 C-31.06 57 -25.12 57 -19 57 C-19.02618408 55.61288818 -19.05236816 54.22577637 -19.0793457 52.79663086 C-19.17009227 47.63257076 -19.22733883 42.46858064 -19.2746582 37.30395508 C-19.29974655 35.07206353 -19.33382529 32.84025369 -19.37719727 30.60864258 C-19.43809729 27.3938375 -19.46626727 24.18012199 -19.48828125 20.96484375 C-19.51408768 19.97290512 -19.5398941 18.98096649 -19.56648254 17.95896912 C-19.56915454 11.30508408 -18.52119778 7.95194493 -14 3 C-9.20581757 0.24778416 -5.486117 -0.33588471 0 0 Z " fill="#D7DEFD" transform="translate(700,116)"/>
<path d="M0 0 C1.16353668 3.46260369 0.80421402 5.8906915 0.07421875 9.4375 C-1.11105306 16.00883034 -1.26267217 22.33737169 -1.1875 29 C-1.18685547 30.08539063 -1.18621094 31.17078125 -1.18554688 32.2890625 C-1.14646144 39.56763962 -0.70880741 46.75695071 0 54 C-0.66 54 -1.32 54 -2 54 C-3.97334094 45.29615691 -4.19253437 36.76443424 -4.1875 27.875 C-4.1884668 26.23168701 -4.1884668 26.23168701 -4.18945312 24.55517578 C-4.15501181 19.34436164 -4.01837484 14.14548624 -3.67578125 8.9453125 C-3.61946533 8.08695801 -3.56314941 7.22860352 -3.50512695 6.34423828 C-2.91384227 3.6001515 -1.81658817 2.10713275 0 0 Z " fill="#C3CDFB" transform="translate(12,86)"/>
<path d="M0 0 C5.61 0 11.22 0 17 0 C17 0.33 17 0.66 17 1 C11.72 1 6.44 1 1 1 C1.02094727 2.45293457 1.04189453 3.90586914 1.06347656 5.40283203 C1.13598541 10.80361032 1.1818399 16.20434574 1.21972656 21.60546875 C1.23981709 23.94115438 1.26709461 26.27678987 1.30175781 28.61230469 C1.35038691 31.97343331 1.37299492 35.33389575 1.390625 38.6953125 C1.41127014 39.73615997 1.43191528 40.77700745 1.45318604 41.84939575 C1.45505067 47.90118425 1.06246253 51.40623511 -3 56 C-8.42440388 60.06830291 -14.53068499 59.28263998 -21 59 C-21.33 58.34 -21.66 57.68 -22 57 C-21.35933594 57.02320313 -20.71867187 57.04640625 -20.05859375 57.0703125 C-14.63536058 57.18346491 -10.04287368 57.10119736 -5 55 C-3.60761953 53.13252737 -3.60761953 53.13252737 -3 51 C-2.34 50.01 -1.68 49.02 -1 48 C-0.67322654 45.75979447 -0.67322654 45.75979447 -0.68115234 43.25317383 C-0.66128265 42.29240433 -0.64141296 41.33163483 -0.62094116 40.3417511 C-0.60938995 39.30729355 -0.59783875 38.272836 -0.5859375 37.20703125 C-0.56657135 36.14586594 -0.5472052 35.08470062 -0.5272522 33.99137878 C-0.46742167 30.59850122 -0.42105679 27.2055898 -0.375 23.8125 C-0.33682345 21.51365699 -0.29777191 19.21482833 -0.2578125 16.91601562 C-0.16171713 11.27746017 -0.07769866 5.63883776 0 0 Z " fill="#747AE8" transform="translate(400,102)"/>
<path d="M0 0 C0.33 0 0.66 0 1 0 C1 15.18 1 30.36 1 46 C2.32 46 3.64 46 5 46 C6.6446674 43.53673288 6.6446674 43.53673288 8 41 C8.66 41 9.32 41 10 41 C10 40.34 10 39.68 10 39 C10.99 39 11.98 39 13 39 C13 38.34 13 37.68 13 37 C14.98 36.505 14.98 36.505 17 36 C15.87799645 39.36601064 14.99584797 40.06243251 12.3125 42.25 C8.86891484 45.1495358 6.00674271 48.18137449 3.2265625 51.71484375 C2.61941406 52.35099609 2.61941406 52.35099609 2 53 C1.34 53 0.68 53 0 53 C0 35.51 0 18.02 0 0 Z " fill="#F1FAFE" transform="translate(761,75)"/>
<path d="M0 0 C2.18971746 3.28457619 2.24583902 4.2175981 2.22705078 8.0222168 C2.22689972 9.04304855 2.22674866 10.06388031 2.22659302 11.11564636 C2.21627045 12.21572525 2.20594788 13.31580414 2.1953125 14.44921875 C2.1924826 15.5769722 2.18965271 16.70472565 2.18673706 17.86665344 C2.17552916 21.47370958 2.15042323 25.08051873 2.125 28.6875 C2.114971 31.13085579 2.10584501 33.57421547 2.09765625 36.01757812 C2.07558779 42.01181413 2.04105356 48.00586517 2 54 C-3.28 54 -8.56 54 -14 54 C-14 51.36 -14 48.72 -14 46 C-13.67 46 -13.34 46 -13 46 C-13 47.98 -13 49.96 -13 52 C-8.38 52 -3.76 52 1 52 C0.9278125 50.25976562 0.855625 48.51953125 0.78125 46.7265625 C-0.15106593 23.43364792 -0.15106593 23.43364792 0.03710938 12.38330078 C0.07930325 9.05241904 -0.1804407 6.21237977 -1 3 C-0.67 2.01 -0.34 1.02 0 0 Z " fill="#6C70EB" transform="translate(539,119)"/>
<path d="M0 0 C0.99 0.33 1.98 0.66 3 1 C2.51391769 1.56354187 2.02783539 2.12708374 1.52702332 2.70770264 C-0.20640717 5.30984898 -0.38996902 6.58974447 -0.43237305 9.67675781 C-0.46206429 11.05773651 -0.46206429 11.05773651 -0.49235535 12.46661377 C-0.49874527 13.45216248 -0.50513519 14.43771118 -0.51171875 15.453125 C-0.52966995 16.46848328 -0.54762115 17.48384155 -0.56611633 18.52996826 C-0.62025707 21.76993672 -0.65412762 25.00975753 -0.6875 28.25 C-0.72066969 30.44793723 -0.75515902 32.64585496 -0.79101562 34.84375 C-0.87598556 40.22903427 -0.94431954 45.61433756 -1 51 C-1.66 51 -2.32 51 -3 51 C-3.07623218 44.70125097 -3.1286762 38.40262149 -3.16479492 32.10351562 C-3.17985641 29.96186883 -3.20030972 27.82025276 -3.22631836 25.67871094 C-3.26281728 22.59562589 -3.27975302 19.51294962 -3.29296875 16.4296875 C-3.30845261 15.47633514 -3.32393646 14.52298279 -3.33988953 13.54074097 C-3.34122377 8.23847496 -2.91656197 4.62209474 0 0 Z " fill="#8D95ED" transform="translate(450,122)"/>
<path d="M0 0 C-2.88746874 2.88746874 -6.41751293 3.47716543 -10.25 4.5625 C-11.00152344 4.78357422 -11.75304687 5.00464844 -12.52734375 5.23242188 C-25.55139981 8.9941693 -38.81864222 9.12777981 -52 6 C-52 5.67 -52 5.34 -52 5 C-50.7625 4.979375 -49.525 4.95875 -48.25 4.9375 C-47.55390625 4.92589844 -46.8578125 4.91429687 -46.140625 4.90234375 C-43.95660426 5.00197973 -42.11252103 5.46054531 -40 6 C-32.63080126 6.72990159 -25.68007393 5.30520429 -18.515625 3.75390625 C-15.35224443 3.07553686 -12.19502726 2.5047359 -9 2 C-9 1.34 -9 0.68 -9 0 C-5.93109813 -1.53445094 -3.29905734 -0.54984289 0 0 Z " fill="#CED7FE" transform="translate(142,187)"/>
<path d="M0 0 C3.00436103 5.0750453 2.33968089 10.45071039 2.3125 16.1875 C2.30903564 17.35192627 2.30557129 18.51635254 2.30200195 19.71606445 C2.15198819 31.71302124 1.04446884 42.9926016 -4 54 C-4.33 54 -4.66 54 -5 54 C-4.44380079 41.24577677 -4.44380079 41.24577677 -2.5 37.1875 C1.06305338 29.61601157 0.12097771 20.68688 0.0625 12.5 C0.05798828 11.29601562 0.05347656 10.09203125 0.04882812 8.8515625 C0.0371195 5.90098927 0.02071995 2.95052141 0 0 Z " fill="#D2DBFD" transform="translate(183,96)"/>
<path d="M0 0 C0 0.33 0 0.66 0 1 C-5.75 1.125 -5.75 1.125 -8 0 C-13.26930032 -0.26346502 -17.0271917 0.0786877 -22 2 C-23.32911682 2.34976758 -24.66082739 2.69096017 -26 3 C-26.0928125 3.60585937 -26.185625 4.21171875 -26.28125 4.8359375 C-27.17263533 7.51978246 -28.14477245 8.12885135 -30.5 9.625 C-33.26274124 11.33468108 -33.26274124 11.33468108 -35 14 C-35.66 14 -36.32 14 -37 14 C-35.95015923 8.61956604 -33.44369201 5.88978688 -29.32421875 2.546875 C-21.57480959 -2.61071496 -8.26531164 -5.01109474 0 0 Z " fill="#DDE7FD" transform="translate(310,94)"/>
<path d="M0 0 C2.3125 -0.3125 2.3125 -0.3125 5 0 C6.04892238 1.63631892 7.04906703 3.30485863 8 5 C10.05925139 5.72382467 10.05925139 5.72382467 12 6 C12.33 6.66 12.66 7.32 13 8 C14.60098897 8.47689033 16.20493906 8.94546631 17.8203125 9.37109375 C20.37174654 10.1072602 22.83111223 10.99169568 25.3125 11.9375 C26.15425781 12.25589844 26.99601562 12.57429687 27.86328125 12.90234375 C30 14 30 14 32 17 C25.56102665 16.55718447 21.05586993 14.91912808 15.4375 11.8125 C14.72142578 11.43802734 14.00535156 11.06355469 13.26757812 10.67773438 C8.35251512 8.02565761 3.95219046 4.9725102 0 1 C0 0.67 0 0.34 0 0 Z " fill="#D8E0FD" transform="translate(58,175)"/>
<path d="M0 0 C0.66 0 1.32 0 2 0 C2.556875 0.7425 3.11375 1.485 3.6875 2.25 C7.6528185 6.96551389 10.56435858 8.788772 16.6484375 9.31640625 C24.62298614 9.61168081 24.62298614 9.61168081 32 7 C32.99 7 33.98 7 35 7 C35.33 6.01 35.66 5.02 36 4 C37.65 3.67 39.3 3.34 41 3 C36.28728279 8.65526065 30.54927056 11.3584362 23.2578125 12.38671875 C16.04867473 12.68284481 8.81946326 11.37213873 3.265625 6.46875 C0 2.7261236 0 2.7261236 0 0 Z " fill="#737AE4" transform="translate(481,163)"/>
<path d="M0 0 C1.00651611 0.00338379 2.01303223 0.00676758 3.05004883 0.01025391 C24.76240943 0.16003036 24.76240943 0.16003036 29.8125 3.125 C29.8125 3.785 29.8125 4.445 29.8125 5.125 C22.67387281 4.30131225 22.67387281 4.30131225 19.3125 3.61328125 C6.16446014 0.97993804 -7.92442846 1.42148622 -21.1875 3.125 C-20.8575 2.465 -20.5275 1.805 -20.1875 1.125 C-13.46294932 0.05070373 -6.79792616 -0.03288679 0 0 Z " fill="#BFCBFD" transform="translate(108.1875,13.875)"/>
<path d="M0 0 C0.33 0 0.66 0 1 0 C1 3.3 1 6.6 1 10 C-0.55589844 10.04898438 -2.11179687 10.09796875 -3.71484375 10.1484375 C-5.78907831 10.22352291 -7.86329625 10.2990682 -9.9375 10.375 C-10.95908203 10.4059375 -11.98066406 10.436875 -13.03320312 10.46875 C-20.73603718 10.76406632 -28.46578815 11.26844255 -35.375 15 C-36.31472656 15.495 -36.31472656 15.495 -37.2734375 16 C-38.88822803 16.9352633 -40.44732506 17.96488337 -42 19 C-41.8125 16.625 -41.8125 16.625 -41 14 C-37.72271751 12.13992075 -35.8340246 12 -32 12 C-31.67 11.01 -31.34 10.02 -31 9 C-20.77 9 -10.54 9 0 9 C0 6.03 0 3.06 0 0 Z " fill="#C1CAFD" transform="translate(523,122)"/>
<path d="M0 0 C1.32 0 2.64 0 4 0 C4 5.94 4 11.88 4 18 C-1.22460938 18.29296875 -1.22460938 18.29296875 -6.44921875 18.5859375 C-9.69317772 18.96422094 -12.06567185 19.61979976 -15 21 C-14.505 19.515 -14.505 19.515 -14 18 C-11.92578125 17.015625 -11.92578125 17.015625 -9.3125 16.25 C-8.46300781 15.98703125 -7.61351562 15.7240625 -6.73828125 15.453125 C-3.5779752 14.93016423 -1.11318048 15.32540159 2 16 C1.85936865 13.70800823 1.71234057 11.41640814 1.5625 9.125 C1.44068359 7.21074219 1.44068359 7.21074219 1.31640625 5.2578125 C1.20793973 2.11699848 1.20793973 2.11699848 0 0 Z " fill="#7B82E9" transform="translate(468,101)"/>
<path d="M0 0 C12.99012303 0.33621495 25.03186016 5.29724788 36 12 C36.66257813 12.39574219 37.32515625 12.79148437 38.0078125 13.19921875 C39.6875 14.25 39.6875 14.25 42 16 C42 16.66 42 17.32 42 18 C38.82041495 16.94013832 36.63663712 15.72562395 33.9375 13.6875 C24.1079985 6.52540596 11.57825242 4.02321035 0 1 C0 0.67 0 0.34 0 0 Z " fill="#686EE5" transform="translate(124,17)"/>
<path d="M0 0 C4.875 4.625 4.875 4.625 6 8 C13.15792459 11.57896229 22.24470711 12.56552852 29.84765625 10.0625 C31.58442195 9.34280429 33.30589612 8.58423817 35.00390625 7.77734375 C35.66261719 7.52082031 36.32132813 7.26429688 37 7 C37.66 7.33 38.32 7.66 39 8 C38.34 8.66 37.68 9.32 37 10 C36.01 10 35.02 10 34 10 C34 10.66 34 11.32 34 12 C30.19360356 14.5737551 26.49281186 14.06016652 22.125 13.6875 C21.43019531 13.63916016 20.73539062 13.59082031 20.01953125 13.54101562 C8.8112638 12.70725562 8.8112638 12.70725562 6.171875 10.40625 C5.46804688 9.46265625 5.46804688 9.46265625 4.75 8.5 C2.75876366 5.79776658 2.75876366 5.79776658 0 4 C0 2.68 0 1.36 0 0 Z " fill="#D8E2FD" transform="translate(480,163)"/>
<path d="M0 0 C0 0.66 0 1.32 0 2 C-0.99 2 -1.98 2 -3 2 C-3.309375 2.86625 -3.309375 2.86625 -3.625 3.75 C-5.49288323 6.80653619 -8.03079223 8.02052815 -11 10 C-11.92972991 11.05438644 -12.82662287 12.13868589 -13.6875 13.25 C-14.450625 14.1575 -15.21375 15.065 -16 16 C-16.99 16 -17.98 16 -19 16 C-19.33 16.99 -19.66 17.98 -20 19 C-20.66 19 -21.32 19 -22 19 C-22 19.66 -22 20.32 -22 21 C-22.66 20.67 -23.32 20.34 -24 20 C-7.54223433 0 -7.54223433 0 0 0 Z " fill="#DBE6FD" transform="translate(71,47)"/>
<path d="M0 0 C2.31 0.66 4.62 1.32 7 2 C7 2.66 7 3.32 7 4 C8.05960937 3.98839844 9.11921875 3.97679687 10.2109375 3.96484375 C11.59895658 3.95546524 12.98697755 3.94636511 14.375 3.9375 C15.07367188 3.92912109 15.77234375 3.92074219 16.4921875 3.91210938 C21.7734375 3.88671875 21.7734375 3.88671875 24 5 C24.33 4.01 24.66 3.02 25 2 C29.455 1.505 29.455 1.505 34 1 C29.45129771 5.54870229 25.38727019 7.17627418 19.0625 7.3125 C11.71202165 7.05595827 5.86840912 5.54801706 0 1 C0 0.67 0 0.34 0 0 Z " fill="#CFD8FD" transform="translate(280,151)"/>
<path d="M0 0 C2.67464819 3.13038433 3.69239867 5.82076136 4.625 9.8125 C4.86476562 10.80894531 5.10453125 11.80539063 5.3515625 12.83203125 C6.80852577 19.95008676 7.12681267 26.69985074 7.0625 33.9375 C7.05798828 34.90751953 7.05347656 35.87753906 7.04882812 36.87695312 C7.0371315 39.2513676 7.02074086 41.62565021 7 44 C6.67 44 6.34 44 6 44 C5.67 35.75 5.34 27.5 5 19 C4.34 19 3.68 19 3 19 C1.89771304 14.59085217 1.92345464 10.51617599 2 6 C1.34 6 0.68 6 0 6 C0 4.02 0 2.04 0 0 Z " fill="#9AA2F4" transform="translate(201,82)"/>
<path d="M0 0 C0.66 0 1.32 0 2 0 C2.45375 1.051875 2.9075 2.10375 3.375 3.1875 C6.31716437 8.22391331 10.53659543 10.30860921 16 12 C20.67036949 12.65404552 25.28686876 12.92529619 30 13 C27.37445368 15.62554632 26.09725736 15.3282598 22.4375 15.375 C15.62664625 15.23633591 10.26815247 13.97167451 5.1484375 9.31640625 C2.42378041 6.31411823 0.77754395 4.02909136 0 0 Z " fill="#797FE5" transform="translate(356,160)"/>
<path d="M0 0 C1.01771484 0.00451172 2.03542969 0.00902344 3.08398438 0.01367188 C5.57688509 0.02537563 8.06966074 0.04177152 10.5625 0.0625 C10.5625 0.3925 10.5625 0.7225 10.5625 1.0625 C9.44230469 1.11148438 8.32210937 1.16046875 7.16796875 1.2109375 C5.69528797 1.28597856 4.22263293 1.36152582 2.75 1.4375 C2.01201172 1.4684375 1.27402344 1.499375 0.51367188 1.53125 C-3.25643115 1.73596148 -5.23400741 1.92683827 -8.4375 4.0625 C-9.4275 5.5475 -9.4275 5.5475 -10.4375 7.0625 C-12.4375 6.0625 -12.4375 6.0625 -13.4375 3.0625 C-16.4075 3.7225 -19.3775 4.3825 -22.4375 5.0625 C-22.4375 4.4025 -22.4375 3.7425 -22.4375 3.0625 C-15.77495696 -0.93502582 -7.4829656 -0.06329119 0 0 Z " fill="#686EE8" transform="translate(512.4375,131.9375)"/>
<path d="M0 0 C0.33 0.66 0.66 1.32 1 2 C-0.375 4 -0.375 4 -2 6 C-2.66 6 -3.32 6 -4 6 C-5.80679587 10.62369023 -6.21839082 14.42528653 -6.125 19.375 C-6.10695313 20.62023437 -6.08890625 21.86546875 -6.0703125 23.1484375 C-6.04710937 24.08945313 -6.02390625 25.03046875 -6 26 C-8.36145492 24.18205455 -8.95669696 23.29420592 -9.3984375 20.29296875 C-9.31723437 9.53355363 -9.31723437 9.53355363 -6 5 C-4.0794172 3.16738282 -2.12591168 1.60624438 0 0 Z " fill="#787AED" transform="translate(487,136)"/>
<path d="M0 0 C1.32 0 2.64 0 4 0 C4 0.66 4 1.32 4 2 C5.299375 1.979375 6.59875 1.95875 7.9375 1.9375 C9.29165633 1.91600546 10.64756083 1.92851801 12 2 C12.33 2.33 12.66 2.66 13 3 C14.48638992 3.15655027 15.97949127 3.25066943 17.47265625 3.31640625 C18.82133789 3.37924805 18.82133789 3.37924805 20.19726562 3.44335938 C21.61555664 3.50233398 21.61555664 3.50233398 23.0625 3.5625 C24.01189453 3.60568359 24.96128906 3.64886719 25.93945312 3.69335938 C28.29281353 3.79979276 30.64628354 3.90181008 33 4 C30.54359237 6.45640763 29.10376212 6.28128858 25.74291992 6.32885742 C25.04400635 6.32345947 24.34509277 6.31806152 23.625 6.3125 C22.55439331 6.30730347 22.55439331 6.30730347 21.4621582 6.30200195 C14.8042204 6.16734034 6.3745379 5.96988239 1.17578125 1.39453125 C0.78777344 0.93433594 0.39976562 0.47414062 0 0 Z " fill="#7E87E5" transform="translate(275,169)"/>
<path d="M0 0 C-0.42297363 0.38220703 -0.84594727 0.76441406 -1.28173828 1.15820312 C-3.23608746 2.93168297 -5.18050398 4.71572462 -7.125 6.5 C-7.79015625 7.10070313 -8.4553125 7.70140625 -9.140625 8.3203125 C-13.69157233 12.51432278 -17.46255806 16.92316207 -21 22 C-22 19 -22 19 -20.92578125 16.7734375 C-20.39339844 15.98195313 -19.86101563 15.19046875 -19.3125 14.375 C-18.79300781 13.57835937 -18.27351563 12.78171875 -17.73828125 11.9609375 C-15.77130705 9.7420138 -14.7924901 9.62316621 -12 9 C-11.67 8.01 -11.34 7.02 -11 6 C-10.34 6 -9.68 6 -9 6 C-8.67 4.35 -8.34 2.7 -8 1 C-2.25 -1.125 -2.25 -1.125 0 0 Z " fill="#727CEA" transform="translate(65,50)"/>
<path d="M0 0 C7.66914454 3.44604733 12.61581231 10.55138536 17.4375 17.1875 C17.87465332 17.78143555 18.31180664 18.37537109 18.76220703 18.98730469 C21.09296396 22.28006378 22.58153329 24.95989415 23 29 C20.06577954 26.26139423 18.02641147 23.6176071 16.0625 20.125 C12.32790723 13.75751932 8.26718578 8.98258356 2.453125 4.39453125 C1 3 1 3 0 0 Z " fill="#6F78E8" transform="translate(156,52)"/>
<path d="M0 0 C0.391875 0.639375 0.78375 1.27875 1.1875 1.9375 C3.38472296 4.43778819 4.75791433 4.64950425 8 5 C8 5.99 8 6.98 8 8 C9.98 8.66 11.96 9.32 14 10 C14 9.34 14 8.68 14 8 C15.65 8 17.3 8 19 8 C19 7.34 19 6.68 19 6 C19.99 6.33 20.98 6.66 22 7 C18.79125393 10.69005798 16.34435606 10.90222865 11.5625 11.25 C6.39037567 10.88704391 4.14089521 9.20094233 0.625 5.5 C-0.179375 4.2625 -0.179375 4.2625 -1 3 C-0.67 2.01 -0.34 1.02 0 0 Z " fill="#D7E1FD" transform="translate(373,149)"/>
<path d="M0 0 C3.42162357 3.42162357 3.38259129 3.8972506 3.3984375 8.47265625 C3.40230469 9.53677734 3.40617188 10.60089844 3.41015625 11.69726562 C3.39855469 12.80779297 3.38695312 13.91832031 3.375 15.0625 C3.38660156 16.17689453 3.39820313 17.29128906 3.41015625 18.43945312 C3.40628906 19.50228516 3.40242187 20.56511719 3.3984375 21.66015625 C3.39505371 22.63605713 3.39166992 23.61195801 3.38818359 24.61743164 C3.19603271 25.79680298 3.19603271 25.79680298 3 27 C2.01 27.66 1.02 28.32 0 29 C0 19.43 0 9.86 0 0 Z " fill="#8185E7" transform="translate(152,103)"/>
<path d="M0 0 C0.66 0.33 1.32 0.66 2 1 C-0.1875 3.5625 -0.1875 3.5625 -3 6 C-5.8125 5.8125 -5.8125 5.8125 -8 5 C-8.33 5.99 -8.66 6.98 -9 8 C-12.01490557 9.00496852 -14.04181692 9.10335303 -17.1875 9.0625 C-18.53908203 9.04896484 -18.53908203 9.04896484 -19.91796875 9.03515625 C-20.60503906 9.02355469 -21.29210937 9.01195312 -22 9 C-19.52287203 7.34858135 -17.80089285 6.46793909 -15.05859375 5.52734375 C-14.31029297 5.26759766 -13.56199219 5.00785156 -12.79101562 4.74023438 C-12.01435547 4.47533203 -11.23769531 4.21042969 -10.4375 3.9375 C-8.89414888 3.40605705 -7.35116233 2.87355384 -5.80859375 2.33984375 C-5.12595459 2.10644287 -4.44331543 1.87304199 -3.73999023 1.63256836 C-1.92574112 1.01066325 -1.92574112 1.01066325 0 0 Z " fill="#D7E1FC" transform="translate(152,206)"/>
<path d="M0 0 C6.93 0 13.86 0 21 0 C19.38262276 3.23475448 18.52370777 4.70572021 16 7 C15.34 6.67 14.68 6.34 14 6 C14.66 5.01 15.32 4.02 16 3 C10.72 3 5.44 3 0 3 C0 2.01 0 1.02 0 0 Z " fill="#797DEB" transform="translate(786,102)"/>
<path d="M0 0 C4.7220028 3.40423458 7.20531458 6.62359626 9.82421875 11.81640625 C10.963083 14.06904909 10.963083 14.06904909 12.64453125 16.15234375 C14 18 14 18 14 20 C14.66 20 15.32 20 16 20 C16.66 21.98 17.32 23.96 18 26 C17.01 25.34 16.02 24.68 15 24 C15 23.34 15 22.68 15 22 C14.34 22 13.68 22 13 22 C11.484375 19.875 11.484375 19.875 9.75 17 C7.0817711 12.65923349 4.27541741 8.61095827 1.06640625 4.65625 C0 3 0 3 0 0 Z " fill="#6F76E8" transform="translate(767,143)"/>
<path d="M0 0 C0.66 0 1.32 0 2 0 C3.41015625 1.8359375 3.41015625 1.8359375 5.0625 4.375 C8.39633429 9.30205615 12.1244397 13.62482354 16.1796875 17.96875 C18 20 18 20 19 22 C15.7005285 21.43111033 14.23699571 20.56543805 12.08984375 18.015625 C11.57486328 17.40976563 11.05988281 16.80390625 10.52929688 16.1796875 C10.00400391 15.54289063 9.47871094 14.90609375 8.9375 14.25 C8.40833984 13.62867188 7.87917969 13.00734375 7.33398438 12.3671875 C0 3.64370295 0 3.64370295 0 0 Z " fill="#7178EA" transform="translate(25,169)"/>
<path d="M0 0 C0.33 0 0.66 0 1 0 C1.08676908 4.12486838 1.14031295 8.24950384 1.1875 12.375 C1.21263672 13.550625 1.23777344 14.72625 1.26367188 15.9375 C1.27333984 17.05898437 1.28300781 18.18046875 1.29296875 19.3359375 C1.3086792 20.37282715 1.32438965 21.4097168 1.34057617 22.47802734 C1.22818604 23.31027832 1.1157959 24.1425293 1 25 C-2 27 -2 27 -6 27 C-6 26.34 -6 25.68 -6 25 C-9.96 25 -13.92 25 -18 25 C-18 24.67 -18 24.34 -18 24 C-12.06 24 -6.12 24 0 24 C0 16.08 0 8.16 0 0 Z " fill="#DAE3FE" transform="translate(418,149)"/>
<path d="M0 0 C0 0.99 0 1.98 0 3 C-1.010625 2.34 -2.02125 1.68 -3.0625 1 C-9.26674171 -2.13547699 -16.22892746 -1.65208537 -23 -1 C-25.84314241 -0.07804642 -25.84314241 -0.07804642 -28 1 C-27.3125 -0.9375 -27.3125 -0.9375 -26 -3 C-16.68455857 -5.51420219 -8.55044805 -4.15466456 0 0 Z " fill="#6C6FE2" transform="translate(717,105)"/>
<path d="M0 0 C0 3 0 3 -1.5390625 4.578125 C-2.22742188 5.12984375 -2.91578125 5.6815625 -3.625 6.25 C-7.10758597 9.14598018 -9.97654568 12.16013487 -12.7734375 15.71484375 C-13.17820312 16.13894531 -13.58296875 16.56304687 -14 17 C-14.66 17 -15.32 17 -16 17 C-16 15.68 -16 14.36 -16 13 C-14.35 12.67 -12.7 12.34 -11 12 C-10.731875 11.030625 -10.46375 10.06125 -10.1875 9.0625 C-9.795625 8.051875 -9.40375 7.04125 -9 6 C-8.01 5.67 -7.02 5.34 -6 5 C-6 4.34 -6 3.68 -6 3 C-5.01 3 -4.02 3 -3 3 C-3 2.34 -3 1.68 -3 1 C-2.01 0.67 -1.02 0.34 0 0 Z " fill="#D9E3FD" transform="translate(777,111)"/>
<path d="M0 0 C0.33 0.99 0.66 1.98 1 3 C1.66 3 2.32 3 3 3 C3 4.32 3 5.64 3 7 C-3.6 7 -10.2 7 -17 7 C-16.67 5.68 -16.34 4.36 -16 3 C-15.67 3.33 -15.34 3.66 -15 4 C-12.47403741 4.23653523 -9.96892793 4.42173692 -7.4375 4.5625 C-6.37112305 4.62727539 -6.37112305 4.62727539 -5.28320312 4.69335938 C-3.52238088 4.79971777 -1.7612168 4.90038846 0 5 C0 3.35 0 1.7 0 0 Z " fill="#7F85EB" transform="translate(339,103)"/>
<path d="M0 0 C1.22419163 3.93795909 0.48320272 6.16112237 -1 10 C-1.66 10 -2.32 10 -3 10 C-3.66 12.31 -4.32 14.62 -5 17 C-7.76264289 17.59732819 -10.16032769 18 -13 18 C-12.39671875 17.45472656 -11.7934375 16.90945312 -11.171875 16.34765625 C-5.85577004 11.33165399 -2.34959785 6.95020902 0 0 Z " fill="#D0D8FD" transform="translate(339,148)"/>
<path d="M0 0 C7.7276932 -0.31806054 13.93924474 -0.32270836 21 3 C21 3.66 21 4.32 21 5 C21.99 5 22.98 5 24 5 C29.5125 10.775 29.5125 10.775 30 15 C29.278125 14.2575 28.55625 13.515 27.8125 12.75 C19.13026567 4.26070421 12.11914769 1.40397159 0 1 C0 0.67 0 0.34 0 0 Z " fill="#6D74E9" transform="translate(292,90)"/>
<path d="M0 0 C0.33 1.32 0.66 2.64 1 4 C0.01 4 -0.98 4 -2 4 C-1.67 5.32 -1.34 6.64 -1 8 C-1.99 8.66 -2.98 9.32 -4 10 C-4.73343428 13.06556598 -4.73343428 13.06556598 -5 16 C-6.32 15.01 -7.64 14.02 -9 13 C-7.47987323 7.59510481 -3.72614782 4.01507372 0 0 Z " fill="#D8E3FD" transform="translate(189,174)"/>
<path d="M0 0 C-0.53625 0.2475 -1.0725 0.495 -1.625 0.75 C-7.14162307 3.65348583 -9.60191168 5.00477921 -12 11 C-17.94 11 -23.88 11 -30 11 C-29.67 10.34 -29.34 9.68 -29 9 C-24.05 9.33 -19.1 9.66 -14 10 C-13.34 8.35 -12.68 6.7 -12 5 C-8.05240054 0.96268237 -5.69623429 -0.67812313 0 0 Z " fill="#6C71E4" transform="translate(511,113)"/>
<path d="M0 0 C0.66 0.33 1.32 0.66 2 1 C1.57847656 1.47050781 1.15695313 1.94101562 0.72265625 2.42578125 C0.17480469 3.04839844 -0.37304688 3.67101563 -0.9375 4.3125 C-1.75541016 5.23482422 -1.75541016 5.23482422 -2.58984375 6.17578125 C-4.20081559 8.05241958 -4.20081559 8.05241958 -5 11 C-6.32 11 -7.64 11 -9 11 C-9.66 12.32 -10.32 13.64 -11 15 C-11.99 14.67 -12.98 14.34 -14 14 C-10.12814498 9.03918575 -5.79125711 5.06361292 -1 1 C-0.67 0.67 -0.34 0.34 0 0 Z " fill="#767FEE" transform="translate(46,36)"/>
<path d="M0 0 C0.33 0.66 0.66 1.32 1 2 C0.01453001 3.67529898 -0.98940479 5.33973644 -2 7 C-4.36224958 12.51995055 -6.13852515 18.29675792 -8 24 C-8.33 24 -8.66 24 -9 24 C-8.52013969 18.43109483 -7.70084819 13.32932432 -6 8 C-5.34 8 -4.68 8 -4 8 C-4 7.01 -4 6.02 -4 5 C-3.34 5 -2.68 5 -2 5 C-2 3.68 -2 2.36 -2 1 C-1.34 0.67 -0.68 0.34 0 0 Z " fill="#D6E0FD" transform="translate(22,62)"/>
<path d="M0 0 C0 3 0 3 -1.328125 4.82421875 C-5.53715595 8.90492558 -8.35840658 10.47829614 -14.3125 10.5 C-17.51597802 10.33592942 -19.94951427 10.01682858 -23 9 C-23 8.34 -23 7.68 -23 7 C-22.35933594 7.10699219 -21.71867187 7.21398437 -21.05859375 7.32421875 C-14.35057507 8.25394414 -9.87418985 7.89490461 -4.23828125 3.68359375 C-2.78960696 2.49831478 -1.38959323 1.25402316 0 0 Z " fill="#6871E4" transform="translate(522,153)"/>
<path d="M0 0 C0.66 0.99 1.32 1.98 2 3 C1.34 3 0.68 3 0 3 C-0.66 5.31 -1.32 7.62 -2 10 C-2.66 10 -3.32 10 -4 10 C-4.20625 10.5775 -4.4125 11.155 -4.625 11.75 C-6.49750888 14.81410544 -8.96958519 16.15539968 -12 18 C-10.64536956 15.09722049 -9.08560948 12.65449099 -7.125 10.125 C-4.60621173 6.82835064 -2.26061302 3.47786619 0 0 Z " fill="#7F87EF" transform="translate(177,152)"/>
<path d="M0 0 C7.26 0 14.52 0 22 0 C22 2.64 22 5.28 22 8 C21.34 8.66 20.68 9.32 20 10 C18.875 5.25 18.875 5.25 20 3 C17.76352369 1.88176185 16.35108471 1.80603939 13.8671875 1.68359375 C13.06152344 1.64169922 12.25585938 1.59980469 11.42578125 1.55664062 C10.58402344 1.51732422 9.74226563 1.47800781 8.875 1.4375 C8.02550781 1.39431641 7.17601562 1.35113281 6.30078125 1.30664062 C4.20071777 1.20045764 2.10038052 1.09971503 0 1 C0 0.67 0 0.34 0 0 Z " fill="#E2EAFE" transform="translate(502,141)"/>
<path d="M0 0 C1.26823485 3.65393537 0.75715321 6.49070026 0.0625 10.25 C-0.13214844 11.32765625 -0.32679687 12.4053125 -0.52734375 13.515625 C-0.68332031 14.33546875 -0.83929688 15.1553125 -1 16 C-1.66 16 -2.32 16 -3 16 C-3 17.65 -3 19.3 -3 21 C-3.33 21 -3.66 21 -4 21 C-3.91288896 18.24849263 -3.80600385 15.50018367 -3.6875 12.75 C-3.66494141 11.97269531 -3.64238281 11.19539063 -3.61914062 10.39453125 C-3.41539044 6.06020907 -3.22824376 3.21958895 0 0 Z " fill="#D7DFFE" transform="translate(12,86)"/>
<path d="M0 0 C0 0.33 0 0.66 0 1 C-7.26 1 -14.52 1 -22 1 C-21.67 0.34 -21.34 -0.32 -21 -1 C-18.25048307 -1.22212255 -15.50134388 -1.42815588 -12.75 -1.625 C-11.97269531 -1.68945312 -11.19539062 -1.75390625 -10.39453125 -1.8203125 C-3.27568856 -2.30707097 -3.27568856 -2.30707097 0 0 Z " fill="#696DE6" transform="translate(809,172)"/>
<path d="M0 0 C0.66 0 1.32 0 2 0 C1.71125 0.556875 1.4225 1.11375 1.125 1.6875 C-0.0413253 4.08494645 -1.0339881 6.51596939 -2 9 C-0.35 10.98 1.3 12.96 3 15 C0.03824877 14.38722388 -1.38058783 13.74627478 -4 12 C-4 11.34 -4 10.68 -4 10 C-4.66 10 -5.32 10 -6 10 C-4.63312778 6.01328937 -2.84804907 3.11505367 0 0 Z " fill="#757EEB" transform="translate(183,178)"/>
<path d="M0 0 C4.23620731 0.2872005 7.19276295 0.59638148 11 2.5 C13.93213336 6.1651667 13.43503071 9.47568064 13 14 C12.34 14 11.68 14 11 14 C10.896875 12.741875 10.79375 11.48375 10.6875 10.1875 C10.36328461 7.74075451 10.12134085 6.20897591 8.875 4.0625 C6.04241497 2.45736848 3.20311579 2.30218074 0 2 C0 1.34 0 0.68 0 0 Z " fill="#7078E3" transform="translate(636,71)"/>
<path d="M0 0 C0 0.33 0 0.66 0 1 C-0.55461914 1.01981934 -1.10923828 1.03963867 -1.68066406 1.06005859 C-4.20423693 1.15557651 -6.72701224 1.26514567 -9.25 1.375 C-10.12269531 1.4059375 -10.99539062 1.436875 -11.89453125 1.46875 C-12.73886719 1.50742187 -13.58320312 1.54609375 -14.453125 1.5859375 C-15.22817383 1.6173584 -16.00322266 1.6487793 -16.80175781 1.68115234 C-19.21668824 2.0314299 -20.85722886 2.86572387 -23 4 C-25.359375 4.1953125 -25.359375 4.1953125 -27.75 4.125 C-28.54921875 4.10695313 -29.3484375 4.08890625 -30.171875 4.0703125 C-30.77515625 4.04710937 -31.3784375 4.02390625 -32 4 C-25.01762357 -2.98237643 -9.13639964 -0.17288675 0 0 Z " fill="#D9E2FE" transform="translate(118,37)"/>
<path d="M0 0 C-2.12342658 1.64789866 -4.2486449 3.29338788 -6.375 4.9375 C-6.97828125 5.40607422 -7.5815625 5.87464844 -8.203125 6.35742188 C-12.7734375 9.88671875 -12.7734375 9.88671875 -15 11 C-14.67 9.35 -14.34 7.7 -14 6 C-12.35 5.67 -10.7 5.34 -9 5 C-9 4.01 -9 3.02 -9 2 C-5.62638617 -0.62392187 -4.03085709 -1.27471549 0 0 Z " fill="#DAE5FE" transform="translate(57,29)"/>
<path d="M0 0 C-2.66144648 1.01618866 -5.32776562 2.01291841 -8 3 C-8.74378906 3.28617188 -9.48757812 3.57234375 -10.25390625 3.8671875 C-15.40137366 5.74713212 -19.52274428 6.2987594 -25 6 C-25 5.67 -25 5.34 -25 5 C-24.12988281 4.81824219 -24.12988281 4.81824219 -23.2421875 4.6328125 C-17.60076819 3.42260704 -12.27461318 1.86435301 -6.875 -0.1875 C-3.88721654 -1.03187359 -2.86247535 -0.86611379 0 0 Z " fill="#6E76E9" transform="translate(150,208)"/>
<path d="M0 0 C1.23393717 4.17855996 1.05313601 7.78745594 0 12 C-1.5625 13.8125 -1.5625 13.8125 -3 15 C-3 15.99 -3 16.98 -3 18 C-3.66 18.33 -4.32 18.66 -5 19 C-4.48378772 12.16018724 -2.51409031 6.36123316 0 0 Z " fill="#E1EAFD" transform="translate(39,79)"/>
<path d="M0 0 C0.33 0 0.66 0 1 0 C1.30031949 9.00958466 1.30031949 9.00958466 -1 12 C-3.83755508 13.85908781 -6.67895374 14.44649229 -10 15 C-8.88625 13.948125 -8.88625 13.948125 -7.75 12.875 C-4.13612049 9.09685324 -0.81651764 5.30736469 0 0 Z " fill="#D4DDFD" transform="translate(206,213)"/>
<path d="M0 0 C3.0148635 2.90621977 5.65605355 5.96433449 8.25 9.25 C8.95640625 10.14203125 9.6628125 11.0340625 10.390625 11.953125 C10.92171875 12.62859375 11.4528125 13.3040625 12 14 C11.67 14.66 11.34 15.32 11 16 C7 12 7 12 5.4375 10.25 C3.94019204 8.67191064 3.94019204 8.67191064 1 9 C1.33 7.35 1.66 5.7 2 4 C1.34 4 0.68 4 0 4 C0 2.68 0 1.36 0 0 Z " fill="#7A82EC" transform="translate(781,135)"/>
<path d="M0 0 C-0.375 1.9375 -0.375 1.9375 -1 4 C-1.99 4.495 -1.99 4.495 -3 5 C-2.34 5.66 -1.68 6.32 -1 7 C-2.134375 7.28875 -3.26875 7.5775 -4.4375 7.875 C-5.613125 8.24625 -6.78875 8.6175 -8 9 C-8.33 9.66 -8.66 10.32 -9 11 C-8.8615024 8.02230154 -8.68881566 5.78173508 -6.66796875 3.48828125 C-2.55999284 0 -2.55999284 0 0 0 Z " fill="#DEE8FC" transform="translate(458,120)"/>
<path d="M0 0 C0 0.33 0 0.66 0 1 C-0.71285156 1.10957031 -1.42570312 1.21914062 -2.16015625 1.33203125 C-9.26759898 2.50863348 -14.94622547 3.96415032 -21 8 C-20.75 5.625 -20.75 5.625 -20 3 C-14.49283166 -1.07938395 -6.50241635 -0.11565563 0 0 Z " fill="#D6E0FE" transform="translate(472,100)"/>
<path d="M0 0 C1.72680792 3.21463796 2.87997414 6.46804489 4 9.9375 C5.21304985 13.68563451 6.49742897 17.35760683 8 21 C5 20 5 20 3.8671875 17.75 C3.53976563 16.8425 3.21234375 15.935 2.875 15 C1.86260057 11.74148734 1.86260057 11.74148734 0 9 C-0.07179964 7.48071962 -0.08392007 5.95832518 -0.0625 4.4375 C-0.05347656 3.61121094 -0.04445312 2.78492188 -0.03515625 1.93359375 C-0.02355469 1.29550781 -0.01195312 0.65742188 0 0 Z " fill="#C0C8FC" transform="translate(250,134)"/>
<path d="M0 0 C3.7952131 1.49097658 5.61042731 3.75700849 8 7 C7.67 7.66 7.34 8.32 7 9 C6.2575 8.34 5.515 7.68 4.75 7 C2.02757055 4.60788553 2.02757055 4.60788553 -2 5 C-2.33 5.99 -2.66 6.98 -3 8 C-3.36923077 3.44615385 -3.36923077 3.44615385 -1.5 1.1875 C-1.005 0.795625 -0.51 0.40375 0 0 Z " fill="#D8E3FD" transform="translate(764,144)"/>
<path d="M0 0 C1.485 0.99 1.485 0.99 3 2 C3.34057617 4.79736328 3.34057617 4.79736328 3.29296875 8.3203125 C3.28330078 9.57714844 3.27363281 10.83398438 3.26367188 12.12890625 C3.23853516 13.44761719 3.21339844 14.76632813 3.1875 16.125 C3.17245483 17.46482903 3.15876613 18.80467404 3.14648438 20.14453125 C3.11102872 23.43008842 3.06160849 26.71484582 3 30 C2.34 29.67 1.68 29.34 1 29 C1.00523682 28.33468262 1.01047363 27.66936523 1.01586914 26.98388672 C1.03675253 23.94760089 1.0496962 20.91133022 1.0625 17.875 C1.07087891 16.82828125 1.07925781 15.7815625 1.08789062 14.703125 C1.10375207 9.6909095 1.08177213 4.92334088 0 0 Z " fill="#737EEC" transform="translate(121,72)"/>
<path d="M0 0 C0.66 0 1.32 0 2 0 C3.26171875 1.79296875 3.26171875 1.79296875 4.6875 4.1875 C7.5885361 8.72887503 10.44516885 11.17600469 15 14 C14.67 14.66 14.34 15.32 14 16 C7.88415353 13.27139158 2.9178467 8.00733143 0 2 C0 1.34 0 0.68 0 0 Z " fill="#717AE7" transform="translate(257,151)"/>
<path d="M0 0 C3.03926059 1.45355941 5.86253132 3.1024377 8.6875 4.9375 C9.47511719 5.44152344 10.26273438 5.94554687 11.07421875 6.46484375 C13 8 13 8 14 11 C10.21908383 9.65686815 7.34348084 7.97035316 4.1875 5.5 C3.39730469 4.8915625 2.60710938 4.283125 1.79296875 3.65625 C1.20128906 3.1096875 0.60960937 2.563125 0 2 C0 1.34 0 0.68 0 0 Z " fill="#7882EB" transform="translate(46,193)"/>
<path d="M0 0 C13.68265683 6.64206642 13.68265683 6.64206642 18 10 C18 10.66 18 11.32 18 12 C14.02858252 10.67619417 11.10022764 8.70230689 7.78125 6.2421875 C5.32581813 4.52984685 2.71096759 3.25630206 0 2 C0 1.34 0 0.68 0 0 Z " fill="#7076E8" transform="translate(148,23)"/>
<path d="M0 0 C0.70962891 0.54527344 0.70962891 0.54527344 1.43359375 1.1015625 C6.49092673 4.94631857 11.68086955 8.52778985 17 12 C16.01 12.495 16.01 12.495 15 13 C12.5390625 11.671875 12.5390625 11.671875 9.625 9.75 C8.66851562 9.12609375 7.71203125 8.5021875 6.7265625 7.859375 C5.82679687 7.24578125 4.92703125 6.6321875 4 6 C3.22398438 5.48953125 2.44796875 4.9790625 1.6484375 4.453125 C1.10445312 3.97359375 0.56046875 3.4940625 0 3 C0 2.01 0 1.02 0 0 Z " fill="#7177E7" transform="translate(57,175)"/>
<path d="M0 0 C1.5 1.375 1.5 1.375 3 3 C3 3.66 3 4.32 3 5 C3.66 5.2475 4.32 5.495 5 5.75 C8.76360907 7.31817045 12.3711424 9.14505046 16 11 C11.98590612 12.19127947 9.87202684 11.73846103 6 10 C2.97690756 7.51434621 1.28054516 5.97111788 0.1875 2.1875 C0.125625 1.465625 0.06375 0.74375 0 0 Z " fill="#7076E9" transform="translate(275,146)"/>
<path d="M0 0 C2.97 0.33 5.94 0.66 9 1 C9 1.66 9 2.32 9 3 C10.65 3.33 12.3 3.66 14 4 C14.33 5.98 14.66 7.96 15 10 C14.50371094 9.60167969 14.00742187 9.20335938 13.49609375 8.79296875 C9.14697367 5.40115025 5.1649071 2.93684016 0 1 C0 0.67 0 0.34 0 0 Z " fill="#D0D9FD" transform="translate(522,102)"/>
<path d="M0 0 C6.93 0 13.86 0 21 0 C21 1.98 21 3.96 21 6 C19.35 6.33 17.7 6.66 16 7 C17.32 5.02 18.64 3.04 20 1 C13.4 1 6.8 1 0 1 C0 0.67 0 0.34 0 0 Z " fill="#D9E1FD" transform="translate(787,101)"/>
<path d="M0 0 C1.98 0.66 3.96 1.32 6 2 C6.33 3.65 6.66 5.3 7 7 C7.66 7 8.32 7 9 7 C9 7.99 9 8.98 9 10 C9.66 10 10.32 10 11 10 C11.33 11.65 11.66 13.3 12 15 C7.25016283 10.61553492 3.57147087 5.35720631 0 0 Z " fill="#DCE5FE" transform="translate(181,47)"/>
<path d="M0 0 C-2.07937949 1.31914392 -4.16308019 2.63038213 -6.25 3.9375 C-6.83652344 4.31068359 -7.42304687 4.68386719 -8.02734375 5.06835938 C-10.95906265 6.8965661 -13.55480229 8.46275382 -17 9 C-6.59567443 -2.37973109 -6.59567443 -2.37973109 0 0 Z " fill="#707CE6" transform="translate(65,27)"/>
<path d="M0 0 C0 0.99 0 1.98 0 3 C-0.99 3.33 -1.98 3.66 -3 4 C-3 4.66 -3 5.32 -3 6 C-7.0527516 6.98248524 -10.83861737 7.08159574 -15 7 C-11.99422513 4.99615009 -9.15022736 3.73880258 -5.8125 2.375 C-4.72582031 1.92898437 -3.63914062 1.48296875 -2.51953125 1.0234375 C-1.68808594 0.68570313 -0.85664063 0.34796875 0 0 Z " fill="#DBE1FD" transform="translate(325,167)"/>
<path d="M0 0 C-1 3 -1 3 -3 4.625 C-6.88284834 6.40463882 -10.7169221 7.16843565 -15 7 C-15.99 6.34 -16.98 5.68 -18 5 C-16.948125 5.020625 -15.89625 5.04125 -14.8125 5.0625 C-11.67295096 5.01103198 -9.03116604 4.73482813 -6 4 C-6 3.34 -6 2.68 -6 2 C-3 0 -3 0 0 0 Z " fill="#C9D6FD" transform="translate(519,155)"/>
<path d="M0 0 C2.64 0 5.28 0 8 0 C8 0.33 8 0.66 8 1 C6.7934375 1.309375 6.7934375 1.309375 5.5625 1.625 C0.889527 3.42860362 -2.92616004 6.12115309 -7 9 C-7 6.69 -7 4.38 -7 2 C-6.67 2.99 -6.34 3.98 -6 5 C-5.01 5 -4.02 5 -3 5 C-3 4.34 -3 3.68 -3 3 C-2.34 3 -1.68 3 -1 3 C-0.67 2.01 -0.34 1.02 0 0 Z " fill="#D6DFFE" transform="translate(688,101)"/>
<path d="M0 0 C0.33 0.99 0.66 1.98 1 3 C-0.64857544 4.99093137 -1.53969062 5.91353305 -4.12109375 6.3984375 C-10.42835693 6.33462033 -10.42835693 6.33462033 -13.5625 4.5 C-14.036875 4.005 -14.51125 3.51 -15 3 C-14.67 2.34 -14.34 1.68 -14 1 C-13.154375 1.515625 -12.30875 2.03125 -11.4375 2.5625 C-7.41263214 4.24562656 -5.19785702 3.92352855 -1 3 C-0.67 2.01 -0.34 1.02 0 0 Z " fill="#6F74E8" transform="translate(646,86)"/>
<path d="M0 0 C3.21524305 1.40844718 5.32183868 3.10344786 7.75 5.625 C8.67039063 6.57246094 8.67039063 6.57246094 9.609375 7.5390625 C10.29773438 8.26222656 10.29773438 8.26222656 11 9 C10.01 9.495 10.01 9.495 9 10 C5.9375 8.875 5.9375 8.875 3 7 C2.125 4.3125 2.125 4.3125 2 2 C1.01 1.67 0.02 1.34 -1 1 C-0.67 0.67 -0.34 0.34 0 0 Z " fill="#CDD9FC" transform="translate(162,200)"/>
<path d="M0 0 C0 0.66 0 1.32 0 2 C-2.30595384 3.62946228 -4.60196707 5.1435897 -7 6.625 C-8.00160156 7.25535156 -8.00160156 7.25535156 -9.0234375 7.8984375 C-10.67831454 8.93864592 -12.33866288 9.97014051 -14 11 C-14 10.01 -14 9.02 -14 8 C-11.69921875 5.95703125 -11.69921875 5.95703125 -8.6875 3.8125 C-7.70136719 3.09707031 -6.71523437 2.38164062 -5.69921875 1.64453125 C-3 0 -3 0 0 0 Z " fill="#6F79E9" transform="translate(161,176)"/>
<path d="M0 0 C0.66 0.33 1.32 0.66 2 1 C0.5039904 4.80802445 -1.66063151 6.69424557 -5 9 C-6.32229584 9.37473005 -7.65514233 9.71672147 -9 10 C-8.06409496 8.8944811 -7.12620142 7.79064547 -6.1875 6.6875 C-5.66542969 6.07261719 -5.14335938 5.45773438 -4.60546875 4.82421875 C-3.12827531 3.14575321 -1.59960869 1.56117966 0 0 Z " fill="#DAE2FD" transform="translate(795,115)"/>
<path d="M0 0 C1.91595968 -0.08133791 3.83291932 -0.13934367 5.75 -0.1875 C7.35101562 -0.23970703 7.35101562 -0.23970703 8.984375 -0.29296875 C12.31488541 0.0305912 13.65757124 0.65188574 16 3 C16 3.66 16 4.32 16 5 C16.66 5 17.32 5 18 5 C18.33 5.99 18.66 6.98 19 8 C18.01 8.495 18.01 8.495 17 9 C16.4225 8.05125 15.845 7.1025 15.25 6.125 C11.87470671 1.95262579 7.52460015 1.85103645 2.44921875 1.2265625 C1.64097656 1.15179688 0.83273437 1.07703125 0 1 C0 0.67 0 0.34 0 0 Z " fill="#6D76E8" transform="translate(691,115)"/>
<path d="M0 0 C2 1 2 1 2.81640625 2.9609375 C3.06261719 3.75757813 3.30882812 4.55421875 3.5625 5.375 C3.81128906 6.16648438 4.06007813 6.95796875 4.31640625 7.7734375 C4.54199219 8.50820312 4.76757812 9.24296875 5 10 C5.33 10.99 5.66 11.98 6 13 C4.68 13 3.36 13 2 13 C-0.28571429 4.57142857 -0.28571429 4.57142857 0 0 Z " fill="#CFD7FD" transform="translate(353,154)"/>
<path d="M0 0 C0.99 0.33 1.98 0.66 3 1 C0.85741777 3.35014488 -1.12629322 4.71817126 -4 6.0625 C-6.52745252 7.25442363 -8.65289341 8.43526227 -11 10 C-10.8125 7.625 -10.8125 7.625 -10 5 C-6.72271751 3.13992075 -4.8340246 3 -1 3 C-0.67 2.01 -0.34 1.02 0 0 Z " fill="#DAE1FD" transform="translate(492,131)"/>
<path d="M0 0 C-1.56361962 3.83797544 -4.02510083 6.1667627 -7 9 C-8.1446875 10.1446875 -8.1446875 10.1446875 -9.3125 11.3125 C-9.869375 11.869375 -10.42625 12.42625 -11 13 C-11.33 12.01 -11.66 11.02 -12 10 C-10.33333333 8.33333333 -8.66666667 6.66666667 -7 5 C-6.113125 4.071875 -5.22625 3.14375 -4.3125 2.1875 C-2 0 -2 0 0 0 Z " fill="#6E71E9" transform="translate(785,106)"/>
<path d="M0 0 C2.10425221 3.15637831 2.66808533 5.43525942 3.4375 9.0625 C3.98102599 11.29731913 3.98102599 11.29731913 6 14 C5.625 16.1875 5.625 16.1875 5 18 C3 17 3 17 1.9140625 14.83203125 C0.91031683 11.72213549 0.58975404 8.94460302 0.375 5.6875 C0.26285156 4.08455078 0.26285156 4.08455078 0.1484375 2.44921875 C0.09945312 1.64097656 0.05046875 0.83273438 0 0 Z " fill="#828CEE" transform="translate(32,131)"/>
<path d="M0 0 C0.66 0.33 1.32 0.66 2 1 C0.00880154 3.98679769 -1.53215423 5.8780499 -5 7 C-7.75 6.625 -7.75 6.625 -10 6 C-6.87511433 3.47605388 -3.68685613 1.60298093 0 0 Z " fill="#DDE7FC" transform="translate(81,41)"/>
<path d="M0 0 C-2.72106694 2.72106694 -4.84776311 2.60655572 -8.625 3.125 C-10.40777344 3.37636719 -10.40777344 3.37636719 -12.2265625 3.6328125 C-13.14179688 3.75398437 -14.05703125 3.87515625 -15 4 C-14.34 3.34 -13.68 2.68 -13 2 C-11.68 2 -10.36 2 -9 2 C-9 1.34 -9 0.68 -9 0 C-5.93109813 -1.53445094 -3.29905734 -0.54984289 0 0 Z " fill="#DEE9FB" transform="translate(142,187)"/>
<path d="M0 0 C2 3 2 3 2 5 C1.34 5 0.68 5 0 5 C-0.268125 5.598125 -0.53625 6.19625 -0.8125 6.8125 C-1.98493467 8.97224808 -3.19369282 10.35790256 -5 12 C-5 8.55639368 -4.20408468 7.25204608 -2.5 4.3125 C-2.0359375 3.50425781 -1.571875 2.69601563 -1.09375 1.86328125 C-0.7328125 1.24839844 -0.371875 0.63351563 0 0 Z " fill="#DAE4FD" transform="translate(196,162)"/>
<path d="M0 0 C5.77706732 0.67965498 10.1534464 3.72605156 14 8 C13.67 8.66 13.34 9.32 13 10 C12.48050781 9.60167969 11.96101562 9.20335938 11.42578125 8.79296875 C7.71163685 5.97131746 4.01431087 3.38349708 0 1 C0 0.67 0 0.34 0 0 Z " fill="#6B70E5" transform="translate(522,103)"/>
<path d="M0 0 C0.66 0 1.32 0 2 0 C0 5 -2 10 -4 15 C-4.33 15 -4.66 15 -5 15 C-4.56826496 8.84777564 -3.34594658 5.18082051 0 0 Z " fill="#7B82E9" transform="translate(41,72)"/>
<path d="M0 0 C8.57142857 -0.28571429 8.57142857 -0.28571429 12 2 C12 2.66 12 3.32 12 4 C3.42857143 3.28571429 3.42857143 3.28571429 0 0 Z " fill="#D7E1FE" transform="translate(126,15)"/>
<path d="M0 0 C1.32 0 2.64 0 4 0 C4 0.66 4 1.32 4 2 C6.01822917 1.90234375 8.03645833 1.8046875 10.0546875 1.70703125 C10.69664062 1.80371094 11.33859375 1.90039062 12 2 C12.99 3.485 12.99 3.485 14 5 C8.58609132 4.53328373 4.79482068 3.75702189 0 1 C0 0.67 0 0.34 0 0 Z " fill="#848BEE" transform="translate(275,169)"/>
<path d="M0 0 C0 3 0 3 -1.640625 4.67578125 C-4.55749319 6.31289767 -6.42855382 6.30612308 -9.75 6.1875 C-11.22726562 6.14689453 -11.22726562 6.14689453 -12.734375 6.10546875 C-13.85585938 6.05326172 -13.85585938 6.05326172 -15 6 C-14.67 4.68 -14.34 3.36 -14 2 C-13.34 2.33 -12.68 2.66 -12 3 C-9.89145964 3.2352732 -9.89145964 3.2352732 -7.5625 3.25 C-6.38880859 3.28867188 -6.38880859 3.28867188 -5.19140625 3.328125 C-2.52068491 2.92823089 -1.68022561 2.05300878 0 0 Z " fill="#D4DBFC" transform="translate(647,88)"/>
<path d="M0 0 C1.25 3.0625 1.25 3.0625 2 6 C-1.93673644 4.68775452 -4.22719294 3.08089673 -7 0 C-2.85526316 -1.38157895 -2.85526316 -1.38157895 0 0 Z " fill="#DBE0FB" transform="translate(164,27)"/>
<path d="M0 0 C0.99 0.33 1.98 0.66 3 1 C-5.261959 7.51936219 -5.261959 7.51936219 -10 9 C-9.34 7.68 -8.68 6.36 -8 5 C-6.68 5 -5.36 5 -4 5 C-4 4.34 -4 3.68 -4 3 C-3.01 3 -2.02 3 -1 3 C-0.67 2.01 -0.34 1.02 0 0 Z " fill="#D4DEFE" transform="translate(152,178)"/>
<path d="M0 0 C0.66 0.33 1.32 0.66 2 1 C1.34 2.65 0.68 4.3 0 6 C-0.66 6 -1.32 6 -2 6 C-2.33 8.31 -2.66 10.62 -3 13 C-3.33 13 -3.66 13 -4 13 C-4.49230769 5.73846154 -4.49230769 5.73846154 -2 2 C-1.34 1.34 -0.68 0.68 0 0 Z " fill="#E2ECFE" transform="translate(500,142)"/>
<path d="M0 0 C0.66 0 1.32 0 2 0 C1.67 1.093125 1.34 2.18625 1 3.3125 C-0.13086649 6.84578884 -0.13086649 6.84578884 0 10 C-1.32 8.68 -2.64 7.36 -4 6 C-2.84826645 3.53199953 -1.95216435 1.95216435 0 0 Z " fill="#CFDAFD" transform="translate(783,127)"/>
<path d="M0 0 C0.33 0 0.66 0 1 0 C1.33 2.31 1.66 4.62 2 7 C3.65 5.35 5.3 3.7 7 2 C7.66 2.33 8.32 2.66 9 3 C8.07213211 4.00894372 7.13231567 5.00690907 6.1875 6 C5.40439453 6.8353125 5.40439453 6.8353125 4.60546875 7.6875 C3 9 3 9 0 9 C0 6.03 0 3.06 0 0 Z " fill="#6E74E8" transform="translate(679,104)"/>
<path d="M0 0 C-1.45738102 0.98058352 -2.91593675 1.95942132 -4.375 2.9375 C-5.18710937 3.48277344 -5.99921875 4.02804688 -6.8359375 4.58984375 C-9 6 -9 6 -11 7 C-11 5.68 -11 4.36 -11 3 C-9.68 2.67 -8.36 2.34 -7 2 C-7 1.34 -7 0.68 -7 0 C-3.98968256 -0.93423645 -3.13349732 -1.04449911 0 0 Z " fill="#DAE4FE" transform="translate(275,80)"/>
<path d="M0 0 C1.231394 2.46278801 1.07159196 4.2795055 1 7 C0.01 7.495 0.01 7.495 -1 8 C-2.67016516 8.99414593 -4.33720673 9.9935725 -6 11 C-4.54955729 6.89041233 -2.48889248 3.56741255 0 0 Z " fill="#D7DEFC" transform="translate(46,68)"/>
<path d="M0 0 C1 3 1 3 0.0625 5.1875 C-0.4634375 6.0846875 -0.4634375 6.0846875 -1 7 C-1.66 7 -2.32 7 -3 7 C-3.28875 7.639375 -3.5775 8.27875 -3.875 8.9375 C-5 11 -5 11 -7 12 C-7 10.68 -7 9.36 -7 8 C-6.34 7.67 -5.68 7.34 -5 7 C-4.67 6.34 -4.34 5.68 -4 5 C-3.34 5.33 -2.68 5.66 -2 6 C-1.34 4.02 -0.68 2.04 0 0 Z " fill="#DAE5FE" transform="translate(321,140)"/>
<path d="M0 0 C3.70503641 0.60334309 5.85968148 2.22474237 8.75 4.5625 C9.94882812 5.52349609 9.94882812 5.52349609 11.171875 6.50390625 C12.07679688 7.24447266 12.07679688 7.24447266 13 8 C12.01 8.33 11.02 8.66 10 9 C10 8.34 10 7.68 10 7 C9.278125 6.773125 8.55625 6.54625 7.8125 6.3125 C4.46790687 4.75168987 2.48396041 2.6968713 0 0 Z " fill="#6E76E3" transform="translate(319,80)"/>
<path d="M0 0 C1.10673834 0.76713644 2.21027694 1.53889003 3.3125 2.3125 C4.23482422 2.95638672 4.23482422 2.95638672 5.17578125 3.61328125 C6.94645331 4.95929534 8.46738009 6.39192803 10 8 C9.67 8.99 9.34 9.98 9 11 C5.79798209 8.50954163 2.66997402 6.06552572 0 3 C0 2.01 0 1.02 0 0 Z " fill="#747BEC" transform="translate(169,36)"/>
<path d="M0 0 C0.99 0.33 1.98 0.66 3 1 C2.2575 1.5775 1.515 2.155 0.75 2.75 C-1.66087643 4.72253526 -3.84042701 6.76044282 -6 9 C-5.67 7.35 -5.34 5.7 -5 4 C-4.34 4 -3.68 4 -3 4 C-2.67 3.01 -2.34 2.02 -2 1 C-1.34 0.67 -0.68 0.34 0 0 Z " fill="#D9E5FE" transform="translate(38,41)"/>
<path d="M0 0 C1.98 0 3.96 0 6 0 C-3 6 -3 6 -7 6 C-7 5.34 -7 4.68 -7 4 C-4 2 -4 2 0 2 C0 1.34 0 0.68 0 0 Z " fill="#DBE6FE" transform="translate(64,22)"/>
<path d="M0 0 C0.99 0.33 1.98 0.66 3 1 C1.02 3.31 -0.96 5.62 -3 8 C-4 5 -4 5 -3.1875 2.875 C-2 1 -2 1 0 0 Z " fill="#E5EEFD" transform="translate(163,167)"/>
<path d="M0 0 C-0.66 1.65 -1.32 3.3 -2 5 C-2.99 4.67 -3.98 4.34 -5 4 C-7.16715557 4.87483915 -7.16715557 4.87483915 -9 6 C-4.5 0 -4.5 0 0 0 Z " fill="#D7DFFA" transform="translate(335,161)"/>
<path d="M0 0 C0.99 0 1.98 0 3 0 C4.32 3.63 5.64 7.26 7 11 C6.34 11 5.68 11 5 11 C3.7109375 9.35546875 3.7109375 9.35546875 2.375 7.1875 C1.92898438 6.47980469 1.48296875 5.77210938 1.0234375 5.04296875 C0 3 0 3 0 0 Z " fill="#D6E1FE" transform="translate(273,140)"/>
<path d="M0 0 C4.61513112 1.31860889 8.09897612 3.21355437 12 6 C10 7 10 7 7.87109375 6.328125 C7.06800781 5.97234375 6.26492187 5.6165625 5.4375 5.25 C4.22900391 4.73179688 4.22900391 4.73179688 2.99609375 4.203125 C1 3 1 3 0 0 Z " fill="#CEDBFC" transform="translate(138,43)"/>
<path d="M0 0 C0.66 0 1.32 0 2 0 C2.598125 1.093125 3.19625 2.18625 3.8125 3.3125 C5.29044697 5.91074129 6.69822933 8.04349493 9 10 C8.01 10 7.02 10 6 10 C4.39453125 8.3203125 4.39453125 8.3203125 2.8125 6.125 C2.01779297 5.04605469 2.01779297 5.04605469 1.20703125 3.9453125 C0 2 0 2 0 0 Z " fill="#6E75E5" transform="translate(356,160)"/>
<path d="M0 0 C0.33 0.66 0.66 1.32 1 2 C1.66 2.33 2.32 2.66 3 3 C2.401875 3.7425 1.80375 4.485 1.1875 5.25 C-0.58173222 7.47417764 -2.30860915 9.71662235 -4 12 C-3.45660208 7.43545749 -2.20536179 4.0271824 0 0 Z " fill="#DFE6FE" transform="translate(485,106)"/>
<path d="M0 0 C0.66 0.33 1.32 0.66 2 1 C2 4.63 2 8.26 2 12 C1.01 11.67 0.02 11.34 -1 11 C-0.34 11 0.32 11 1 11 C0.649375 10.29875 0.29875 9.5975 -0.0625 8.875 C-1.1639193 5.49731414 -0.79516141 3.41919407 0 0 Z " fill="#DDE7FE" transform="translate(521,119)"/>
<path d="M0 0 C2.3125 -0.25 2.3125 -0.25 5 0 C6.875 1.8125 6.875 1.8125 8 4 C7.67 4.99 7.34 5.98 7 7 C5.83040013 6.02433888 4.66438823 5.044375 3.5 4.0625 C2.8503125 3.51722656 2.200625 2.97195312 1.53125 2.41015625 C1.0259375 1.94480469 0.520625 1.47945313 0 1 C0 0.67 0 0.34 0 0 Z " fill="#D4DFFC" transform="translate(325,82)"/>
<path d="M0 0 C2.25 -0.25 2.25 -0.25 5 0 C7.3125 2 7.3125 2 9 4 C5.37471432 4.20140476 3.13498292 3.85776765 0 2 C0 1.34 0 0.68 0 0 Z " fill="#E2EFFD" transform="translate(72,184)"/>
<path d="M0 0 C0 2.64 0 5.28 0 8 C-0.66 8 -1.32 8 -2 8 C-2.12375 7.360625 -2.2475 6.72125 -2.375 6.0625 C-2.684375 5.0415625 -2.684375 5.0415625 -3 4 C-3.66 3.67 -4.32 3.34 -5 3 C-2.25 0 -2.25 0 0 0 Z " fill="#D7E0FE" transform="translate(524,166)"/>
<path d="M0 0 C2.97 1.65 5.94 3.3 9 5 C9 5.33 9 5.66 9 6 C6.36 5.67 3.72 5.34 1 5 C0.67 3.35 0.34 1.7 0 0 Z " fill="#DEE7FE" transform="translate(266,164)"/>
<path d="M0 0 C0.99 0 1.98 0 3 0 C1.60667426 3.36720387 0.0210714 4.9859524 -3 7 C-3 5.02 -3 3.04 -3 1 C-2.01 1.495 -2.01 1.495 -1 2 C-0.67 1.34 -0.34 0.68 0 0 Z " fill="#DAE1FC" transform="translate(781,104)"/>
<path d="M0 0 C-3.79541663 2.21399303 -7.75629421 3.00980198 -12 4 C-11.67 3.01 -11.34 2.02 -11 1 C-6.95637513 -0.8380113 -4.26550147 -1.25455926 0 0 Z " fill="#D0D8FD" transform="translate(290,74)"/>
<path d="M0 0 C1.17539996 0.92652701 2.34010577 1.86663387 3.5 2.8125 C4.1496875 3.33457031 4.799375 3.85664062 5.46875 4.39453125 C7 6 7 6 7 9 C3.46352496 7.32482761 2.2088437 6.50719183 0.6875 2.8125 C0.460625 1.884375 0.23375 0.95625 0 0 Z " fill="#C9D4FB" transform="translate(159,56)"/>
<path d="M0 0 C3.85645121 -0.22036864 6.49223216 0.39644899 10 2 C10 2.99 10 3.98 10 5 C6.08788267 3.84414715 3.1254959 2.64465038 0 0 Z " fill="#7F88E8" transform="translate(62,205)"/>
<path d="M0 0 C0.33 0 0.66 0 1 0 C1.12117188 0.61488281 1.24234375 1.22976562 1.3671875 1.86328125 C1.53476562 2.67152344 1.70234375 3.47976562 1.875 4.3125 C2.03742188 5.11300781 2.19984375 5.91351563 2.3671875 6.73828125 C2.94478999 9.25301118 2.94478999 9.25301118 5 12 C4.01 12.495 4.01 12.495 3 13 C3 12.34 3 11.68 3 11 C2.01 10.67 1.02 10.34 0 10 C0 6.7 0 3.4 0 0 Z " fill="#898DF2" transform="translate(495,148)"/>
<path d="M0 0 C0.33 0.66 0.66 1.32 1 2 C-1.85276137 4.93200474 -4.65079784 7.64315404 -8 10 C-6.5682479 4.98886765 -4.01554307 3.05530451 0 0 Z " fill="#6870EA" transform="translate(770,121)"/>
<path d="M0 0 C0.33 0.66 0.66 1.32 1 2 C0.360625 2.598125 -0.27875 3.19625 -0.9375 3.8125 C-3.20310389 5.90810337 -3.20310389 5.90810337 -4 9 C-4.99 9 -5.98 9 -7 9 C-7 8.34 -7 7.68 -7 7 C-6.34 7 -5.68 7 -5 7 C-4.731875 6.030625 -4.46375 5.06125 -4.1875 4.0625 C-3.5996875 2.5465625 -3.5996875 2.5465625 -3 1 C-2.01 0.67 -1.02 0.34 0 0 Z " fill="#6C77EF" transform="translate(455,106)"/>
<path d="M0 0 C2.64 0.66 5.28 1.32 8 2 C5 4 5 4 1.8125 3.625 C0.884375 3.41875 -0.04375 3.2125 -1 3 C-0.67 2.01 -0.34 1.02 0 0 Z " fill="#DDE8FB" transform="translate(69,209)"/>
<path d="M0 0 C0.66 0.33 1.32 0.66 2 1 C0.35 2.65 -1.3 4.3 -3 6 C-3.99 5.67 -4.98 5.34 -6 5 C-2.25 1.125 -2.25 1.125 0 0 Z " fill="#E3ECFC" transform="translate(152,206)"/>
<path d="M0 0 C1 3 1 3 1 5 C-1.31 5.33 -3.62 5.66 -6 6 C-4 4 -2 2 0 0 Z " fill="#D2E0FD" transform="translate(397,167)"/>
<path d="M0 0 C0 0.99 0 1.98 0 3 C-2.25 5.25 -2.25 5.25 -5 7 C-7.3125 6.75 -7.3125 6.75 -9 6 C-6 4 -6 4 -3 4 C-3 3.34 -3 2.68 -3 2 C-2.01 1.34 -1.02 0.68 0 0 Z " fill="#6D73E6" transform="translate(396,166)"/>
<path d="M0 0 C3.83736322 0.95934081 4.59660228 1.23609263 7 4 C6.67 4.99 6.34 5.98 6 7 C4.02 4.69 2.04 2.38 0 0 Z " fill="#E3EFFD" transform="translate(51,168)"/>
<path d="M0 0 C0.33 0 0.66 0 1 0 C1 2.31 1 4.62 1 7 C-0.98 7.99 -0.98 7.99 -3 9 C-2.01 6.03 -1.02 3.06 0 0 Z " fill="#D7E1FD" transform="translate(200,153)"/>
<path d="M0 0 C2.22825644 2.22825644 2.69239369 3.65761628 3.625 6.625 C4.01558594 7.85089844 4.01558594 7.85089844 4.4140625 9.1015625 C4.60742188 9.72804687 4.80078125 10.35453125 5 11 C4.01 10.67 3.02 10.34 2 10 C0.47839986 6.3962102 0 3.94779314 0 0 Z " fill="#BFCBFD" transform="translate(15,151)"/>
<path d="M0 0 C0.33 0 0.66 0 1 0 C1 3.63 1 7.26 1 11 C-0.98 11.99 -0.98 11.99 -3 13 C-2.690625 12.34 -2.38125 11.68 -2.0625 11 C-0.75039745 7.29523985 -0.39735865 3.90736009 0 0 Z " fill="#8285F2" transform="translate(524,141)"/>
<path d="M0 0 C0.33 0 0.66 0 1 0 C1 2.97 1 5.94 1 9 C0.34 9 -0.32 9 -1 9 C-1.33 9.66 -1.66 10.32 -2 11 C-1.125 3.375 -1.125 3.375 0 0 Z " fill="#CACFFB" transform="translate(205,136)"/>
<path d="M0 0 C3.08089673 2.77280706 4.68775452 5.06326356 6 9 C4.68 8.34 3.36 7.68 2 7 C2 6.01 2 5.02 2 4 C1.34 4 0.68 4 0 4 C0 2.68 0 1.36 0 0 Z " fill="#7B83E7" transform="translate(187,55)"/>
<path d="M0 0 C2.64752004 2.57784846 4.94432065 4.91648098 7 8 C5.35 7.67 3.7 7.34 2 7 C1.34 4.69 0.68 2.38 0 0 Z " fill="#CAD3FD" transform="translate(30,178)"/>
<path d="M0 0 C0.66 0 1.32 0 2 0 C1.34 3.63 0.68 7.26 0 11 C-0.33 11 -0.66 11 -1 11 C-1.0270043 9.54176788 -1.04639787 8.08339325 -1.0625 6.625 C-1.07410156 5.81289062 -1.08570313 5.00078125 -1.09765625 4.1640625 C-1 2 -1 2 0 0 Z " fill="#888FF1" transform="translate(34,87)"/>
<path d="M0 0 C2.79872437 2.52788007 4.45773019 4.20411134 5 8 C3.68 7.67 2.36 7.34 1 7 C0.67 4.69 0.34 2.38 0 0 Z " fill="#D0DBFD" transform="translate(170,69)"/>
<path d="M0 0 C2.16874252 0.50603992 3.99967627 0.99983813 6 2 C5.34 3.32 4.68 4.64 4 6 C0 1.125 0 1.125 0 0 Z " fill="#DCE5FC" transform="translate(201,207)"/>
<path d="M0 0 C3.465 1.485 3.465 1.485 7 3 C6.67 3.66 6.34 4.32 6 5 C3.69 4.34 1.38 3.68 -1 3 C-0.67 2.01 -0.34 1.02 0 0 Z " fill="#E6F1FE" transform="translate(59,204)"/>
<path d="M0 0 C-3.6441774 2.4294516 -5.71241272 2.16179575 -10 2 C-9.67 1.34 -9.34 0.68 -9 0 C-5.65506316 -0.99444068 -3.31044803 -1.10348268 0 0 Z " fill="#E3EEFD" transform="translate(314,153)"/>
<path d="M0 0 C0 3.90838866 -1.50567876 5.11594107 -4 8 C-4.33 6.68 -4.66 5.36 -5 4 C-3.35 2.68 -1.7 1.36 0 0 Z " fill="#DCE5FD" transform="translate(177,150)"/>
<path d="M0 0 C1.70884005 1.62339805 3.37446717 3.29319053 5 5 C5 5.66 5 6.32 5 7 C4.01 7 3.02 7 2 7 C1.34 4.69 0.68 2.38 0 0 Z " fill="#7D83EA" transform="translate(332,89)"/>
<path d="M0 0 C2.31 0 4.62 0 7 0 C6.67 0.66 6.34 1.32 6 2 C2.9375 2.625 2.9375 2.625 0 3 C0 2.01 0 1.02 0 0 Z " fill="#EDF7FB" transform="translate(83,41)"/>
</svg>
